<?xml version="1.0" encoding="UTF-8"?><svg id="Laag_1" xmlns="http://www.w3.org/2000/svg" viewBox="0 0 1280 773.15"><defs><style>.cls-1{stroke-width:0px;}</style></defs><path class="cls-1" d="m870.01,242.18c-1.02.64-2.07,1.24-3.06,1.92-12.14,8.33-24.18,16.78-36.43,24.94-4.81,3.2-10.1,5.7-15.14,8.56-5.79,3.28-11.61,6.5-17.3,9.93-10,6.04-20.72,10.44-31.67,14.35-9.72,3.47-18.95,8.27-29.11,10.58-7.99,1.81-15.91,3.92-23.88,5.81-11.56,2.74-23.13,5.46-34.72,8.07-4.69,1.05-9.49,2.68-14.17,2.47-9.08-.4-18.27-1.52-23.61-10.67-.71-1.21-1.87-2.15-2.58-3.35-1.05-1.79-2-3.65-2.75-5.58-.81-2.09-1.06-4.44-2.04-6.43-5.97-12.15-8.74-25.06-9.6-38.48-.28-4.38-.85-8.73-1.26-13.1-.7-7.56-3.07-14.66-5.98-21.61-4.11-9.79-8.15-19.6-12.39-29.34-1.63-3.75-3.77-7.28-5.58-10.96-4.43-9.01-9.08-17.93-11.65-27.72-2.35-8.95-1.59-18.02-.61-27.01,1-9.14,2.74-18.15,5.03-27.1,1.75-6.8,2.16-13.94,3.07-20.94.63-4.85-1.81-8.05-5.84-10.35-1.39-.79-3.16-1.27-3.69-3.45,3.24-.67,4.86,3.06,8.27,2.47-.17-1.69-.13-3.36-.52-4.92-1.15-4.53-2.33-9.05-3.75-13.5-1.94-6.05-2.78-12.27-1.68-18.45,2.14-12.11,4.78-24.14,7.25-36.19.13-.63.56-1.19,1.02-2.12,1.67,1.63.77,3.11.49,4.47-.88,4.3-1.85,8.57-2.73,12.87-.22,1.07-.19,2.18-.28,3.29,11.34,2.6,19.36,9.46,25.75,18.42,5.02,7.04,9.71,14.34,12.45,22.62,1.32,3.99,2.39,8.17,2.84,12.34,1.75,16.46-2.29,31.81-10.21,46.11-2.58,4.65-6.37,8.63-9.62,12.91-2.31,3.04-4.76,5.99-6.94,9.12-2.64,3.78-2.37,5.89,1.22,8.75,3.98,3.17,8.12,6.15,12.23,9.17.79.58,1.7,1.07,2.63,1.35,5.8,1.76,11.64,3.43,17.44,5.2.81.25,1.52.83,3.11,1.73-3.36.85-5.67.18-7.84-.46-4.61-1.36-9.17-2.91-13.68-4.57-1.57-.57-3.01-1.58-4.38-2.56-3.33-2.39-6.57-4.91-9.88-7.34-5.55-4.07-6.23-7.72-2.07-13.3,4.14-5.55,8.65-10.85,12.77-16.42,2.09-2.82,4.01-5.87,5.45-9.06,4.81-10.64,8.15-21.6,8.13-33.54-.02-9.34-1.91-18.08-6.42-26.08-3.8-6.75-8.26-13.17-12.82-19.45-2.92-4.02-7.02-6.92-11.42-9.35-2.96-1.64-6-2.33-9.42-1.94-.28.48-.71.93-.82,1.44-2.3,10.31-3.66,20.57-.38,31.02,1.9,6.06,3.27,12.31,4.47,18.55.67,3.49,2.71,5.08,5.73,6.05,7.43,2.39,15.03,2.49,22.71,1.87,1.57-.13,3.25-.85,4.91.27-4.34,3.16-13.83,2.89-31.7-.83-.22.87-.66,1.76-.65,2.64.14,9.59-1.93,18.83-4.32,28.04-3.51,13.52-5.09,27.27-4.39,41.22.32,6.43,2.6,12.45,5.38,18.22,8.92,18.47,17.61,37.04,25.32,56.05,2.94,7.24,5.41,14.6,6.31,22.41.08.69.33,1.35.51,2.06,13.45,3.58,26.93,5.93,40.77,3.91,9.11-1.33,17.53-4.6,24.37-11.04,2.77-2.61,5.22-5.56,7.83-8.35.53-.57,1.13-1.08,2.39-1.26-.21.82-.19,1.82-.67,2.43-4.75,6.05-10.06,11.47-17.03,15.06-12.26,6.3-25.32,6.65-38.56,5.17-5.33-.6-10.57-1.95-15.86-2.93-.81-.15-1.65-.18-2.48-.26-.26.51-.63.88-.6,1.23.9,12.14,1.55,24.33,6.08,35.85,1.71,4.34,3.92,8.56,5.01,13.06,1.42,5.8,4.82,10.2,8.58,14.4,3.47,3.89,8.13,5.11,13.32,5.58,9.71.87,18.73-1.7,27.95-4.03,11.1-2.81,22.44-4.68,33.6-7.3,11.42-2.68,22.79-5.58,33.68-10.13,9.14-3.83,18.56-7,27.58-11.08,7.07-3.2,13.73-7.29,20.53-11.06,6.19-3.43,12.2-7.2,18.51-10.39,8.75-4.43,16.91-9.72,24.8-15.5,7.42-5.44,14.99-10.67,22.61-15.84,3.67-2.49,5.66-5.66,6.15-10.09.76-6.89,1.78-13.76,2.81-20.62,1.29-8.6,4.16-16.62,8.18-24.4,7.43-14.39,13.12-29.5,15.87-45.54.71-4.15.84-8.46.77-12.69-.27-16.15,4.75-30.93,11.45-45.29,7.39-15.85,18.76-28.49,31.96-39.72,5.16-4.4,9.96-9.25,14.72-14.09,1.85-1.88,3.14-4.31,4.78-6.62,1.12.14,2.21.39,3.3.4,3.4.02,3.78.2,4.57,3.39.34,1.36.54,2.79.54,4.19.02,11.6.1,23.21-.06,34.81-.22,15.99-4.46,31.04-11.21,45.42-2.04,4.34-4.66,8.41-7.06,12.57-3.54,6.12-8.27,11.09-14.37,14.72-.49.29-.99.59-1.39.97-7.73,7.44-17.2,11.86-27.13,15.41-3.59,1.28-6.15,3.74-9,6.1-4.44,3.68-6.14,8.61-8.08,13.57-3.55,9.1-7.1,18.2-10.7,27.28-2.99,7.54-5.07,15.32-5.95,23.39-.93,8.48-3.79,16.47-5.99,24.64-5.07,18.77-11.83,36.94-19.84,54.62-6.88,15.19-17.25,27.85-29.67,38.88-.74.65-1.61,1.15-2.41,1.73-5.73,4.15-11.37,8.43-17.2,12.43-4.55,3.11-9.32,5.9-14.01,8.79-4.7,2.89-9.42,5.74-14.15,8.57-.77.46-1.64.77-2.47,1.15-.18-.23-.37-.46-.55-.68.64-.75,1.17-1.68,1.95-2.22,3.26-2.25,6.44-4.7,9.95-6.48,8.36-4.26,16.37-8.97,23.47-15.17,1.8-1.57,3.86-2.87,5.91-4.12,10.22-6.23,18.13-14.83,25.36-24.19,6.01-7.79,10.77-16.27,14.5-25.35,6.45-15.72,12.66-31.53,16.96-48.01.49-1.86.8-3.77,1.2-5.65-.34-.23-.69-.47-1.03-.7Zm33.56-87.54c4.42-1.74,8.08-3.12,11.69-4.61,6.42-2.65,12.73-5.51,18.14-9.99,1.96-1.62,3.84-3.39,5.99-4.71,5.94-3.66,10.43-8.66,13.88-14.61,2.69-4.64,5.4-9.3,7.65-14.16,5.45-11.79,8.97-24.23,9.63-37.17.68-13.25.29-26.56.32-39.85,0-1.48.18-3.16-1.69-4.16-2.2,1-2.63,3.22-3.36,5.1-4.42,11.32-8.94,22.6-13.07,34.03-5.37,14.89-12.76,28.69-22.29,41.26-10.77,14.21-18.26,30.21-26.03,46.07-.3.61-.42,1.31-.87,2.78Zm60.33-126.98c-1.61,1.46-2.64,2.38-3.65,3.32-6.4,5.99-12.74,12.06-19.21,17.98-23.36,21.38-36.33,47.66-37.34,79.48-.22,6.96-.6,13.83-2.54,20.56-.27.93-.15,1.98-.21,2.98,1.56-1.34,2.41-2.79,3.18-4.27,5.1-9.78,10.07-19.62,15.33-29.31,2.01-3.71,4.55-7.16,7.05-10.58,9.36-12.85,17.76-26.21,23.16-41.3,1.81-5.05,4.22-9.89,6.13-14.91,2.61-6.87,5.01-13.83,7.47-20.76.27-.76.32-1.59.63-3.18Z"/><path class="cls-1" d="m637.89,522.92c2,.65,4.03,1.23,5.99,1.97,10.85,4.07,18.81,10.96,21.44,22.71,4.69,20.96-6.74,38.25-27.98,42.29-3.73.71-7.58,1.06-11.39,1.09-16.29.12-32.57.06-48.86.04-1.24,0-2.48-.17-4.27-.29,0-1.99,0-3.78,0-5.58,0-39.64,0-79.28,0-118.91,0-3.39-.29-6.8-.17-10.18.12-3.38.18-6.84,1-10.09,1.35-5.34,2.94-10.66,5.03-15.75,4.85-11.74,13.66-19.55,25.35-24.25,2.89-1.16,5.82-2.22,8.69-3.43,8.26-3.48,17.01-4.24,25.8-4.42,8.35-.17,16.71.35,25.05.2,5.5-.1,10.99-.89,16.49-1.29,9.45-.7,18.9-1.3,28.35-2.02,2.82-.22,5.65-.55,8.42-1.08,16.71-3.17,33.13-7.43,49.12-13.28,13.9-5.09,26.63-12.44,39.1-20.25,5.75-3.6,11.51-7.29,16.8-11.52,8.99-7.18,16.87-15.51,23.47-24.98.65-.93,1.26-1.89,1.77-2.9,5.67-11.24,11.39-22.47,16.92-33.78,1.22-2.51,1.8-5.33,2.62-8.03.38-1.26.65-2.56.96-3.83.3.03.6.06.91.08.15.73.48,1.48.42,2.2-.37,4.13-1.55,8.01-3.45,11.73-5.23,10.2-10.24,20.5-15.49,30.69-4.67,9.05-11.62,16.31-18.77,23.42-10.88,10.81-24.04,18.3-37.12,25.93-.86.5-1.81.84-2.62,1.4-9.58,6.54-20.47,10.26-31.27,14.03-8.41,2.94-17.01,5.4-25.67,7.51-7.96,1.94-16.13,2.95-24.14,4.71-9.32,2.04-18.73,3-28.24,3.04-6.22.03-12.46-.73-18.66-.5-12.3.44-24.59,1.29-36.87,2.05-1.68.1-3.41.43-4.99,1-6.79,2.44-13.71,4.62-20.24,7.62-10.66,4.91-17.84,13.24-21.56,24.42-1.57,4.7-2.98,9.45-4.38,14.19-.43,1.46-.6,3-1,5.03,1.74.12,3.08.3,4.42.3,15.58,0,31.16.04,46.74-.05,7.02-.04,13.84.85,20.31,3.66,17.94,7.78,25.65,28.06,17.44,45.83-3.86,8.34-10.6,13.43-19,16.57-2.11.79-4.29,1.36-6.44,2.04v.68Zm-62.91,66.3c2.15,0,3.69,0,5.23,0,13.73,0,27.46.06,41.19-.03,4.51-.03,9.09-.05,13.53-.74,17.4-2.7,32.74-14.76,28.8-38.84-1.99-12.16-10-19.26-21.16-23.21-5.92-2.1-12.1-2.77-18.38-2.76-15.15.03-30.29,0-45.44.02-1.22,0-2.43.2-3.78.32v65.24Zm.26-67.83c1.29.09,2.4.23,3.52.23,15.15.01,30.3.09,45.45-.04,4.08-.04,8.21-.41,12.23-1.13,16.94-3.05,26.71-13.2,27.79-29.44.92-13.87-4.73-24.36-17.38-30.24-7.05-3.27-14.53-4.72-22.24-4.78-15.01-.12-30.02-.04-45.03-.02-1.37,0-2.73.16-3.95.24-1.11,3.82-1.42,59.39-.39,65.18Z"/><path class="cls-1" d="m864.44,54.14c.21,1.61.52,2.89.53,4.17.05,12.5.94,24.95,4.82,36.88,2.74,8.46,6.18,16.74,11.27,24.16,2.39,3.49,5.19,6.72,7.37,10.33,2.43,4.02,4.06,8.47,3.94,13.26-.51,20.49-4.92,39.68-17.22,56.75-10.83,15.03-21.53,30.2-30.5,46.49-2.31,4.2-5.16,8.11-7.8,12.13-.38.57-.89,1.14-1.47,1.48-.39.22-1.18.22-1.5-.04-.33-.27-.46-1.01-.37-1.47.11-.51.5-1.03.9-1.41,4.39-4.17,6.95-9.6,10.14-14.6,6.62-10.38,13.28-20.72,20-31.03,4.48-6.87,9.33-13.52,13.59-20.52,5.89-9.66,9.58-20.19,10.74-31.5.56-5.48,1.25-10.99,1.24-16.49-.01-5.15-1.81-9.79-5.27-13.94-3.15-3.78-5.99-7.97-8.19-12.37-5.3-10.62-10.63-21.3-11.81-33.42-.47-4.79-1.14-9.56-1.75-14.33-.12-.96-.41-1.9-.69-3.16-1.9.98-2.51,2.46-1.59,3.83,2.18,3.28,1.01,6.57.43,9.83-.84,4.73-2.15,9.38-2.84,14.13-1.95,13.53-1.83,27.05.52,40.56,1.57,9.05,2.91,18.14,4.25,27.24.37,2.51.6,5.09.45,7.62-.59,10.02-1.2,20.05-2.13,30.04-.32,3.48-1.52,6.88-2.43,10.3-.72,2.72-1.51,5.44-2.45,8.09-.78,2.19-1.5,4.53-3.88,5.66-1.76-.99-1.11-2.19-.59-3.34,1.4-3.09,2.93-6.13,4.23-9.26,2.4-5.83,3.33-11.95,3.62-18.23.31-6.49,1.09-12.97,1.25-19.47.11-4.63-.26-9.3-.82-13.9-.94-7.72-1.9-15.46-3.39-23.08-1.82-9.25-1.88-18.55-1.94-27.9-.05-8.7,1.26-17.19,3.26-25.61.47-2,.78-4.04,1.16-6.07-.27-.1-.53-.21-.8-.31-.44.56-1.09,1.06-1.3,1.7-4.56,13.46-11.47,25.86-17.41,38.7-3.94,8.5-4.73,17.73-4.13,27.01.1,1.58.97,3.29,1.94,4.6,8.14,10.98,10,23.16,7.2,36.28-1.19,5.58-1.74,11.17-1.04,16.87.43,3.55,1.51,6.82,2.83,10.15,1.71,4.3,2.7,8.89,3.82,13.41.26,1.06-.23,2.3-.38,3.45-2.42-.14-2.49-1.62-2.42-2.79.35-5.58-1.69-10.44-3.85-15.45-2.86-6.64-2.78-13.78-1.9-20.89.68-5.46,1.55-10.91,1.92-16.4.54-8.12-2.38-15.34-6.98-21.82-2.34-3.29-3.4-6.64-3.36-10.65.12-10.63,1.93-20.73,7.09-30.24,8.8-16.24,15.41-33.4,20.5-51.14.72-2.52.79-2.5,3.2-4.27Z"/><path class="cls-1" d="m102.87,514.71c-4.84,0-9.35,0-13.85,0h-13.6c-4.53,0-9.07.03-13.6,0-4.46-.04-8.94.19-13.88-.2,1.23-2.26,2.78-1.72,4.01-1.73,10.91-.04,21.81-.03,32.72-.03,5.24,0,10.48,0,15.72,0,1.39,0,2.79,0,4.77,0,.04,5.41.1,10.44.11,15.48.02,5.1,0,10.19,0,15.29v15.72c0,5.1,0,10.19,0,15.29-.01,4.95.06,9.9-.65,14.84-2.18-3.23-1.19-6.74-1.37-10.1-.18-3.39-.03-6.79-.04-10.19-.01-3.47-.04-6.94-.07-10.41-.29-.05-.58-.09-.86-.14-.74,1.16-1.5,2.3-2.21,3.47-4.85,7.97-10.92,14.79-18.72,19.99-17.42,11.6-38.39,10.5-54.26-3.19-12.28-10.6-20.03-24.13-23.85-39.79-5.28-21.63-4.36-42.98,4.46-63.64,4.5-10.55,10.99-19.8,19.86-27.2,16.03-13.37,37.11-14.27,54.3-2.42,10.45,7.21,17.72,16.96,22.72,28.51.33.76.3,1.68.43,2.53-.33.13-.65.27-.98.4-.65-1.11-1.38-2.19-1.94-3.35-3.62-7.61-8.24-14.52-14.35-20.37-6.67-6.39-14.29-11.15-23.47-12.93-12.39-2.41-23.61.48-33.65,7.98-8.46,6.32-14.83,14.5-19.17,24-12.67,27.75-12.57,55.63.43,83.26,4.02,8.53,9.8,15.9,17.17,21.9,15.39,12.56,35.23,13.38,51.61,2.14,9.98-6.85,16.85-16.24,21.79-27.14.51-1.12.71-2.46.72-3.7.05-10.48.03-20.95.01-31.43,0-.69-.15-1.38-.32-2.82Z"/><path class="cls-1" d="m938.07,589.68c-.79-1.23-1.65-2.43-2.35-3.71-10.77-19.76-21.59-39.48-32.18-59.33-1.77-3.31-3.7-4.61-7.53-4.53-12.46.27-24.92.09-37.39.11-1.66,0-3.32.14-5.46.23-.06,22.57.01,44.76-.04,66.96-.33.02-.67.03-1,.05-.29-.27-.82-.54-.82-.81-.04-44.99-.04-89.99-.04-135.41,1.31-.15,2.51-.41,3.72-.42,16.85-.06,33.71-.22,50.56-.08,9.21.08,17.93,2.22,25.62,7.68,10.04,7.14,14.2,17.09,13.43,29.04-1.1,17.02-11.77,28.46-29.03,31.63-3.71.68-7.49.99-11.98,1.56,11.94,22.37,24.01,44.16,35.75,66.13-.42.29-.83.59-1.25.88Zm-84.38-134.86c-1.02,6.1-.73,62.26.29,65.34.9.07,1.88.22,2.85.22,15.99.03,31.99.14,47.98.03,8.01-.06,15.75-1.6,22.79-5.72,11.52-6.74,15.98-17.05,15.1-30.02-.83-12.19-7.08-20.61-18.13-25.52-6.68-2.97-13.72-4.34-21.03-4.34-15.29,0-30.57,0-45.86,0h-3.97Z"/><path class="cls-1" d="m369.77,588.74c10.02-22.4,19.62-43.84,29.3-65.45,2.19.81,2.35,2.52,2.93,3.83,8.39,18.87,16.74,37.77,25.1,56.65.62,1.39,1.27,2.76,2.3,5.02,1.07-2.26,1.8-3.7,2.45-5.17,18.13-41.01,36.25-82.03,54.38-123.05.57-1.29,1.09-2.62,1.78-3.85.26-.46.96-.66,1.7-1.14-.48,3.7-57.91,133.66-60.67,137.16-5.19-10.96-9.76-21.85-14.57-32.64-4.81-10.79-9.58-21.59-14.78-33.32-10.38,22.4-19.59,44.18-29.69,65.87-2.94-3.62-60.19-133.44-60.5-136.89,1.85.25,1.94,1.87,2.46,3.03,5.12,11.5,10.21,23.02,15.3,34.53,13.34,30.14,26.68,60.28,40.03,90.42.6,1.36,1.32,2.67,2.49,5Z"/><path class="cls-1" d="m1001.93,521.94c-16.14.47-32.3-.07-48.35.29-1.04,3.22-1.31,59.46-.3,65.55h4.81c27.06,0,54.11,0,81.17.01,1.61,0,3.21.19,4.82.3.03.3.06.6.09.9-.65.3-1.27.73-1.95.86-.82.15-1.69.05-2.54.05-27.91,0-55.81,0-83.72,0h-4.65c-.17-1.6-.42-2.94-.43-4.28-.02-42.9-.02-85.81,0-128.71,0-1.23.2-2.47.35-4.22,31.12,0,61.97,0,92.83,0,.04.45.09.91.13,1.36-.81.25-1.62.7-2.44.72-3.26.09-6.52.04-9.77.04-24.51,0-49.01,0-73.52,0h-4.94c-.95,3.37-1.28,57.61-.43,65.26,3.88.67,7.95.22,11.98.3,4.11.08,8.22.02,12.32.02h24.54c0,.52,0,1.03,0,1.55Z"/><path class="cls-1" d="m217.85,523.52c.24-18.11,4.87-34.7,15.99-49.2,4.62-6.02,10.06-11.12,16.84-14.65,14.58-7.58,32.36-5.5,45.24,5.51,11.46,9.8,18.61,22.35,21.92,36.95,4.71,20.76,3.46,41.02-6.24,60.33-3.39,6.75-7.86,12.74-13.33,17.99-16.75,16.06-41.39,16.09-58.08-.05-11.6-11.22-18.24-25.05-20.8-40.86-.86-5.28-1.05-10.68-1.54-16.02Zm100.66-4.88c-.54-3.6-1.05-9.69-2.42-15.58-3.35-14.42-10.16-26.99-21.69-36.56-15.28-12.69-35.84-12.41-50.98.47-4.9,4.16-8.86,9.12-12.23,14.57-14.91,24.14-15.02,59.99-.23,84.22,4.24,6.95,9.38,13.11,16.14,17.78,13,8.98,29.89,9.25,43.19.7,5.43-3.49,9.86-8.02,13.68-13.17,11.02-14.86,14.77-31.83,14.53-52.43Z"/><path class="cls-1" d="m1110.94,452.66c2.32,2.61,57.08,124.7,60.62,134.88.2.56.08,1.23.11,1.85-.28.11-.57.23-.85.34-.63-1.13-1.36-2.21-1.88-3.39-3.04-6.85-6.16-13.67-8.99-20.61-1.09-2.68-2.62-3.5-5.44-3.49-28.74.09-57.48.11-86.23-.01-3.09-.01-4.52,1.15-5.63,3.84-2.82,6.79-5.89,13.48-8.89,20.19-.53,1.19-1.22,2.32-2.1,3.98-1.32-2.38-.05-3.62.51-4.88,7.96-18.13,15.96-36.24,23.96-54.35,10.91-24.71,21.83-49.42,32.76-74.12.61-1.37,1.32-2.71,2.06-4.22Zm46.45,107.52c-15.34-34.69-30.45-68.86-45.55-103.03-.31.01-.63.02-.94.04-15.11,34.18-30.22,68.35-45.54,102.99h92.03Z"/><path class="cls-1" d="m1180,453.15c.1,1.46.29,2.91.29,4.37.02,21.8,0,43.6.02,65.41.01,14.61,3.4,28.31,11.12,40.82,3.59,5.83,7.9,11.06,13.26,15.35,14.55,11.66,34.09,11.84,48.61.17,12.06-9.69,19.21-22.58,22.45-37.51,1.43-6.59,2.17-13.44,2.26-20.19.28-21.09.1-42.19.1-63.28v-4.96c.32-.06.64-.12.96-.17.29.62.72,1.21.84,1.85.15.82.05,1.69.05,2.54,0,21.66.02,43.32,0,64.98-.02,16.4-4.03,31.64-13.43,45.26-3.48,5.04-7.48,9.61-12.35,13.36-15.33,11.81-35.64,11.73-50.64-.5-11.96-9.75-19.25-22.59-22.67-37.46-1.57-6.84-2.42-13.98-2.53-21-.32-21.51-.12-43.04-.11-64.56,0-1.47.14-2.95.22-4.42.51-.02,1.03-.05,1.54-.07Z"/><path class="cls-1" d="m140.76,453.21c.28.55.74,1.07.79,1.64.13,1.26.07,2.54.07,3.82,0,41.04,0,82.07,0,123.11,0,1.81,0,3.62,0,5.88,2.01.09,3.65.23,5.29.23,27.04.01,54.08,0,81.12.03,1.59,0,3.19.23,4.78.35.02.32.04.64.07.95-.66.25-1.31.68-1.99.72-1.69.11-3.4.04-5.09.04-26.76,0-53.51,0-80.27,0h-5.6c-.14-1.94-.36-3.7-.36-5.45-.02-38.91-.02-77.83-.02-116.74,0-3.82-.03-7.64.02-11.46.02-1.03.3-2.05.46-3.07.24-.02.49-.03.73-.05Z"/><path class="cls-1" d="m719.96,520.81c16.74-22.48,32.96-44.74,49.81-66.55.97,2.07-.42,3.08-1.26,4.21-8.72,11.86-17.49,23.68-26.24,35.52-6.4,8.65-12.74,17.34-19.22,25.92-1.63,2.15-2.35,4.3-2.34,7.01.08,19.67.05,39.35.03,59.02,0,1.56-.19,3.13-.3,4.69-.4,0-.79,0-1.19,0-.1-1.56-.29-3.13-.3-4.69-.02-19.39-.08-38.78.05-58.17.02-3.3-.91-5.91-2.87-8.54-14.88-19.98-29.64-40.05-44.43-60.09-.97-1.32-1.87-2.69-2.81-4.04.19-.21.38-.42.57-.63.62.29,1.38.45,1.83.91.79.8,1.39,1.78,2.07,2.69,14.47,19.58,28.94,39.15,43.42,58.73.9,1.22,1.88,2.37,3.18,4.02Z"/><path class="cls-1" d="m414.17,691.89c3.9,2.57,7.74,4.59,11.87,1.72,2.81-1.96,3.3-4.98,2.72-8.56-1.35.72-2.4,1.38-3.53,1.86-4.78,2.05-9.66.41-11.79-4.26-2.27-4.98-2.26-10.2-.06-15.19,2.11-4.79,7.42-6.46,12.15-4.11.99.49,1.89,1.19,2.81,1.78.76-.76,1.47-1.48,2.86-2.87.18,1.88.32,2.67.32,3.46.02,6.77.07,13.55-.03,20.32-.03,1.8-.28,3.69-.87,5.38-1.18,3.38-3.83,5.19-7.33,5.55-3.67.38-7.03-.35-9.38-3.56-.11-.15.07-.51.25-1.53Zm14.93-16.49h-.01c0-1.41.07-2.82-.01-4.22-.22-3.37-2.42-5.86-5.61-6.45-3.63-.68-6.53.69-7.9,4.05-1.6,3.91-1.65,7.98-.24,11.95,1.38,3.88,4.36,5.39,8.36,4.59,3.36-.67,5.31-3.17,5.42-6.97.03-.98,0-1.97,0-2.95Z"/><path class="cls-1" d="m774.66,667.54c-1.35,4.12-2.48,7.57-3.61,11.03-.61,1.88-1.19,3.78-1.83,5.65-.39,1.14-.4,2.92-2.1,2.63-.74-.13-1.53-1.51-1.82-2.47-2.06-6.88-3.99-13.79-5.99-20.78,2.03-.92,2.53.12,2.89,1.45,1.15,4.23,2.31,8.46,3.48,12.68.37,1.34.82,2.67,1.45,4.7.69-1.39,1.2-2.15,1.48-2.99,1.54-4.7,2.97-9.44,4.55-14.13.28-.83,1.09-1.47,1.65-2.2.67.77,1.66,1.44,1.96,2.33,1.85,5.48,3.54,11.01,5.54,17.3.7-1.44,1.2-2.18,1.43-3,1.25-4.5,2.36-9.03,3.68-13.5.34-1.17.13-3.02,2.55-3.09.06.81.32,1.61.13,2.29-1.81,6.39-3.66,12.78-5.63,19.13-.28.91-1.24,1.6-1.88,2.39-.64-.84-1.44-1.6-1.87-2.53-.59-1.27-.89-2.68-1.33-4.02-1.09-3.36-2.17-6.73-3.3-10.08-.26-.75-.73-1.43-1.44-2.79Z"/><path class="cls-1" d="m998.5,682.14c1.21-4.44,2.43-8.89,3.64-13.33.41-1.5.68-3.06,1.29-4.48.27-.62,1.23-.93,1.88-1.38.25.21.5.42.75.62-.73,2.53-1.47,5.05-2.2,7.58-1.25,4.35-2.42,8.72-3.81,13.03-.33,1.04-1.36,1.85-2.07,2.77-.62-.85-1.48-1.61-1.81-2.56-1.5-4.27-2.84-8.59-4.25-12.89-.35-1.06-.73-2.11-1.33-3.87-.72,1.37-1.24,2.11-1.51,2.93-1.55,4.7-2.98,9.44-4.61,14.12-.31.88-1.33,1.52-2.02,2.27-.54-.74-1.33-1.41-1.58-2.24-1.98-6.5-3.86-13.02-5.74-19.54-.15-.5-.07-1.07-.1-1.63,1.68-.88,2.15.14,2.47,1.29,1.08,3.81,2.12,7.63,3.2,11.44.53,1.88,1.11,3.74,2.38,5.66.54-1.49,1.13-2.97,1.62-4.47,1.3-4.04,2.51-8.11,3.88-12.12.28-.83,1.08-1.48,1.64-2.21.69.76,1.7,1.41,2.01,2.3,1.47,4.28,2.72,8.63,4.1,12.94.42,1.3.99,2.55,1.49,3.82.23-.01.45-.02.68-.04Z"/><path class="cls-1" d="m528.66,652.67v12.71c1.79-.97,2.82-1.59,3.9-2.1,5-2.33,10.19-.35,12.23,4.78,1.73,4.36,1.77,8.88.26,13.3-1.99,5.81-7.5,7.98-13.03,5.28-.87-.43-1.66-1.01-2.46-1.5-.82.71-1.54,1.33-3.05,2.64-.36-12.05-.28-23.15-.06-34.24.01-.52.41-1.03.62-1.55.53.22,1.06.45,1.59.67Zm.14,22.45c0,1.27-.06,2.54.01,3.8.18,3.45,2.27,5.84,5.56,6.43,3.74.67,6.62-.61,7.96-3.96,1.63-4.05,1.68-8.28.16-12.37-1.3-3.5-4.01-4.87-7.74-4.32-3.44.51-5.68,2.98-5.92,6.62-.08,1.26-.01,2.53-.02,3.8Z"/><path class="cls-1" d="m872.02,652.72c3.22,1.44,1.96,3.85,2.17,5.87.21,2.05.05,4.13.05,6.77,1.56-.92,2.46-1.53,3.43-2,5.09-2.48,10.5-.44,12.53,4.84,1.51,3.92,1.62,7.99.51,12.06-1.91,6.97-7.8,9.42-14.13,5.9-.49-.27-.94-.61-1.56-1.01-.69.61-1.37,1.2-2.13,1.87-.37-.42-.84-.7-.86-1.01-.12-2.25-.2-4.5-.21-6.75-.02-7.34-.02-14.67,0-22.01,0-1.51.13-3.01.19-4.52Zm2.22,22.53c0,1.27.15,2.55-.03,3.79-.42,2.86,2.56,5.74,5.21,6.27,3.54.71,6.5-.32,7.92-3.3,2.17-4.55,2.26-9.28.06-13.85-1.45-3.02-4.41-4.16-7.87-3.39-3.05.67-5.08,3.05-5.27,6.26-.08,1.4-.01,2.81-.02,4.22Z"/><path class="cls-1" d="m699.85,224.96c-1.3.16-2.59.44-3.89.46-8.97.1-16.89-3.12-24.24-7.95-2.95-1.94-5.76-4.09-8.56-6.23-5.32-4.07-10.92-4.61-16.52-.81-4.07,2.75-7.82,2.62-11.95.53-5.79-2.93-8.33-2.29-12.34,2.88-.69.89-1.42,1.75-2.18,2.58-.15.16-.52.12-1.15.25.13-.85,0-1.74.38-2.28,2.4-3.5,4.67-7.4,9.72-7.19,1.9.08,3.99.48,5.61,1.4,3.81,2.15,7.11,2.47,11.03-.15,6.13-4.1,13.14-3.21,18.99,1.24,4.15,3.16,8.51,6.09,12.98,8.77,5.44,3.26,11.47,4.73,17.84,4.78,1.43.01,2.85.31,4.28.48,0,.41,0,.83,0,1.24Z"/><path class="cls-1" d="m619.97,765.9c-2.24-1.74-1.99-4.52-2.82-6.77-.92-2.52-1.53-5.15-2.3-7.72-.72-2.39-1.46-4.78-2.97-7.18-1.15,3.75-2.25,7.52-3.45,11.26-1.12,3.5-1.7,7.23-4.04,10.44-2.4-4.05-3.06-8.47-4.21-12.72-1.17-4.32-2.2-8.67-3.28-12.98,1.81-.84,2.01.22,2.25,1.18,1.39,5.48,2.76,10.97,4.16,16.45.27,1.07.66,2.11,1.31,4.17,2.47-8.11,4.65-15.26,6.77-22.25,2.5.06,2.33,1.73,2.66,2.78,1.59,5.13,3.02,10.32,4.53,15.47.31,1.05.76,2.06,1.5,4.05,1.17-4.6,2.02-8.27,3.03-11.9.98-3.51,1.37-7.24,3.27-10.43.91,3.35-4.2,23.29-6.41,26.16Z"/><path class="cls-1" d="m593.86,686.78c-.71-.18-2.38-1.33-2.83-2-1.06.62-2.08,1.35-3.2,1.84-2.67,1.18-5.43,1.6-8.24.46-2.4-.97-3.98-2.62-4.26-5.32-.29-2.77.45-5.21,2.96-6.53,1.82-.95,3.93-1.51,5.98-1.85,2.19-.37,4.46-.27,6.61-.38.94-4.26.14-6.59-2.49-7.86-2.8-1.35-6.93-.55-9.04,1.63-.84.87-.84,3.03-2.93,2.13-.12-.16-.29-.29-.27-.38.92-4.13,4.45-6.35,9.72-6.12,4.55.19,7.72,2.58,7.92,6.67.28,5.88.07,11.78.07,17.7Zm-2.9-11.51c-3.44-.55-6.9-.58-10.21.94-2.26,1.04-3.28,2.96-2.98,5.08.31,2.21,2.14,3.81,4.69,4.12,6.17.73,9.81-3.48,8.5-10.13Z"/><path class="cls-1" d="m467.66,651.88v14.02c1.78-1.12,2.76-1.82,3.81-2.38,6.01-3.21,11.77-.08,11.99,6.65.18,5.49.04,11,.04,16.38-2.14.63-2.29-.54-2.3-1.75-.03-3.54-.02-7.08-.03-10.62,0-.85.02-1.7-.01-2.55-.17-5.02-1.91-7.06-5.95-7.04-4.02.03-7.21,3.03-7.37,7.21-.15,3.82,0,7.65-.09,11.47-.03,1.28.51,2.91-1.58,3.7-.32-.58-.91-1.13-.91-1.68.06-10.73.18-21.46.34-32.19,0-.2.63-.39,2.06-1.23Z"/><path class="cls-1" d="m316.59,672.99c.81-3.03.62-5.48-1.7-7.25-2.22-1.68-4.94-1.73-7.27-.68-1.97.9-3.52,2.74-5.48,4.34-.84-2.2.26-3.33,1.34-4.39,3.02-2.96,9.07-3.58,12.63-1.3,2.34,1.5,3.35,3.72,3.35,6.46-.01,5.48,0,10.97,0,16.54-1.92,1.1-2.1-.94-2.46-1.41-3.15.86-5.91,2.06-8.75,2.28-3.92.31-6.85-2.26-7.36-5.58-.55-3.65,1.1-6.5,4.97-7.79,1.96-.66,4.13-.74,6.22-.97,1.51-.17,3.03-.18,4.5-.26Zm-.08,2.21c-3.63-.37-6.99-.54-10.16,1.01-2.27,1.11-3.33,2.96-3.03,5.05.31,2.18,2.18,3.83,4.69,4.14,6.17.75,9.74-3.35,8.5-10.19Z"/><path class="cls-1" d="m227.66,656.36v12.75h14.74c.11.35.21.7.32,1.04-.65.4-1.29,1.1-1.97,1.14-2.68.14-5.37.07-8.06.08-1.54,0-3.07,0-4.95,0v13.66c5.71.13,11.35.25,17.94.4-3.26,2-14.53,2.35-20.16,1.21-.95-3.29-1.1-27.06-.2-31.5,3.58-1.07,15.65-1.06,19.54.16-2.94,1.86-5.87.85-8.59,1.03-2.77.18-5.57.04-8.61.04Z"/><path class="cls-1" d="m1039.64,652.76v13.12c1.96-1.16,3.18-2.02,4.52-2.64,5.83-2.7,11.1.37,11.34,6.75.21,5.57.04,11.16.04,16.74-.3.09-.59.17-.89.26-.45-.51-1.27-1-1.3-1.53-.16-2.53-.11-5.08-.13-7.62-.02-2.4,0-4.8-.07-7.2-.08-2.37-.7-4.61-3.13-5.55-2.67-1.03-5.29-.68-7.53,1.28-1.91,1.67-2.89,3.76-2.86,6.34.04,3.39.04,6.78-.02,10.17-.02,1.31-.23,2.62-.42,4.6-1.02-.84-1.72-1.15-1.72-1.47-.07-10.86-.08-21.72-.04-32.57,0-.33.71-.66,1.08-.99.38.1.75.21,1.13.31Z"/><path class="cls-1" d="m278.1,652.23c1.38,4.52.1,8.91.99,13.55,1.09-.71,1.96-1.3,2.85-1.86,6.08-3.84,12.4-.8,12.71,6.29.24,5.47.05,10.97.05,16.25-1.78.72-2.31.06-2.32-1.16-.04-3.25-.04-6.51-.05-9.76,0-1.27.03-2.55-.01-3.82-.14-4.82-1.76-6.92-5.45-7.11-4.17-.22-7.75,2.79-8.04,7.05-.21,3.1-.04,6.22-.07,9.33-.02,1.92-.09,3.83-.94,6.01-.47-.5-1.23-.94-1.35-1.51-.24-1.08-.13-2.25-.13-3.38,0-8.63-.03-17.26.03-25.88,0-1.28-.65-2.9,1.75-4Z"/><path class="cls-1" d="m570.8,675.13h-17.21c-.55,3.25.42,5.52,2.08,7.56,1.85,2.28,4.35,3.34,7.16,2.75,2.3-.49,4.47-1.61,7.08-2.6-.35,2.3-1.75,3.03-3.08,3.72-5.59,2.92-12.51.48-14.94-5.34-1.59-3.81-1.56-7.75-.19-11.62,1.74-4.92,5.92-7.63,10.78-7.14,4.56.46,7.68,3.93,8.31,9.31.1.83.01,1.68.01,3.37Zm-2.47-2.4c-1-6.03-3.24-8.29-7.48-8.12-4.09.17-6.56,2.96-6.93,8.12h14.41Z"/><path class="cls-1" d="m720.18,765.77v-25.67c3.85-.87,7.65-.88,11.3-.03,4.54,1.05,6.21,6.31,3.45,10.11-.46.63-1.33.97-2.2,1.59,1.03.86,1.56,1.29,2.09,1.74,2.45,2.11,2.82,4.79,1.93,7.69-.9,2.93-3.29,4.28-6.07,4.51-3.33.28-6.71.07-10.49.07Zm2.35-1.29c3.19-.24,6.02-.16,8.71-.74,2.82-.6,4.21-2.99,3.96-5.67-.23-2.49-1.87-4.46-4.6-4.75-2.72-.29-5.49-.06-8.5-.06,0,3.18-.02,5.84.01,8.5,0,.67.19,1.34.4,2.72Zm.11-12.83c2.68-.19,5.35-.12,7.9-.63,2.58-.52,3.85-2.54,3.75-4.93-.1-2.35-1.57-4.2-4.17-4.61-2.58-.41-5.25-.71-7.98.37,0,2.63-.02,5.16.02,7.69,0,.53.23,1.05.48,2.11Z"/><path class="cls-1" d="m508.19,682.29c.21,2.68-1.13,3.31-2.29,4-5.39,3.19-12.55,1.1-15.17-4.59-1.93-4.18-1.84-8.56-.14-12.79,1.88-4.66,6.14-7.07,10.8-6.44,4.28.58,7.07,3.66,7.83,8.76.16,1.08.14,2.18.23,3.8h-17.12c-.82,4.1.63,6.95,3.36,8.97,4.2,3.11,8.24,1.4,12.5-1.71Zm-1.61-9.49c-.21-5.61-2.58-8.25-6.87-8.2-4.28.05-7.02,3.1-7.13,8.2h14.01Z"/><path class="cls-1" d="m854.71,675.08h-17.04c-.91,3.2.28,5.5,1.95,7.62,1.7,2.15,4.06,3.28,6.72,2.77,2.45-.47,4.78-1.59,7.51-2.54-.38,2.18-1.74,2.94-3.07,3.63-5.72,2.98-12.76.37-15.1-5.67-1.48-3.83-1.39-7.77.04-11.59,1.79-4.79,6.15-7.43,10.95-6.83,4.34.55,7.35,3.93,8.01,9.09.12.96.02,1.94.02,3.52Zm-2.44-2.34c-1.04-6.09-3.22-8.3-7.46-8.13-4.12.17-6.59,2.95-6.95,8.13h14.42Z"/><path class="cls-1" d="m797.58,674.97c-.38,3.48.52,5.76,2.2,7.78,1.87,2.25,4.37,3.28,7.16,2.68,2.3-.5,4.46-1.62,7.3-2.7-1.34,3.35-3.68,4.27-6.13,4.79-5.64,1.19-10.78-1.9-12.57-7.44-1.17-3.63-1.02-7.26.3-10.79,1.79-4.78,6.16-7.43,10.95-6.83,4.49.57,7.56,4.19,8.04,9.5.07.83.01,1.66.01,3.01h-17.27Zm.28-1.91c5.02-.23,9.73.51,14.42-.45-.77-5.79-2.96-8.11-7.22-8.01-4.14.1-6.61,2.78-7.2,8.46Z"/><path class="cls-1" d="m918.06,675.42c-.34,1.67-.51,3.51-1.1,5.22-1.61,4.69-5.44,7.21-10.37,7.06-4.59-.14-8.3-2.94-9.72-7.44-1.05-3.3-1.13-6.64-.11-9.99,1.5-4.94,5.27-7.84,10.26-7.85,5.01,0,8.8,2.83,10.23,7.84.46,1.61.54,3.32.82,5.16Zm-2.2-.45c-.65-2.1-1.07-4.34-2.02-6.32-1.32-2.75-3.74-4.07-6.87-4.08-3.17-.02-5.47,1.46-6.84,4.15-2.11,4.13-2.2,8.44-.07,12.6,1.46,2.86,3.93,4.34,7.24,4.23,3.12-.1,5.46-1.56,6.72-4.34.85-1.88,1.2-3.99,1.85-6.24Z"/><path class="cls-1" d="m718.38,675.09c-.38,1.92-.55,3.91-1.19,5.74-1.65,4.65-5.55,7.1-10.5,6.87-4.51-.21-8.52-3.12-9.51-7.64-.61-2.81-.74-5.9-.26-8.73,1.02-5.94,5.29-9.15,11-8.91,5.42.23,9.44,4.23,10.09,10.08.09.84.08,1.69.12,2.53.08.02.16.04.24.05Zm-19.65-.58c.36,2.21.43,3.79.89,5.24,1.13,3.56,4.04,5.72,7.49,5.79,3.6.07,6.38-1.79,7.73-5.42,1.44-3.87,1.39-7.77-.64-11.44-3.02-5.45-10.33-5.71-13.49-.36-1.16,1.97-1.45,4.46-1.98,6.18Z"/><path class="cls-1" d="m673.54,696.41c1.27-.8,1.76-1.27,2.34-1.45,4.84-1.53,7-5.73,5.24-10.5-2.1-5.7-4.29-11.36-6.42-17.05-.48-1.27-.88-2.57-1.33-3.91,2.21-.98,2.67.37,3.18,1.75,1.61,4.38,3.23,8.74,4.88,13.1.48,1.28,1.03,2.53,1.88,4.56.78-1.64,1.32-2.55,1.66-3.52,1.65-4.66,3.24-9.34,4.88-14,.4-1.14.58-2.63,2.77-2.18-.05.75.06,1.56-.19,2.25-3.17,8.77-6.31,17.54-9.62,26.25-1.79,4.7-3.8,5.74-9.26,4.69Z"/><path class="cls-1" d="m640.41,696.47c.73-.8.94-1.25,1.27-1.36,5.91-1.97,7.75-5.78,5.55-11.57-2-5.27-4.02-10.54-6.02-15.82-.49-1.3-.92-2.61-1.38-3.93,1.86-1.34,2.51-.21,2.98,1.02,1.36,3.56,2.64,7.14,3.97,10.71.84,2.23,1.71,4.45,2.8,7.25.7-1.24,1.26-1.95,1.55-2.76,1.72-4.78,3.36-9.58,5.05-14.37.45-1.26.65-2.87,3.02-2.39-.14.81-.16,1.61-.42,2.32-3.07,8.49-6.15,16.97-9.28,25.44-.48,1.31-1.1,2.63-1.93,3.74-1.68,2.24-3.91,2.9-7.16,1.71Z"/><path class="cls-1" d="m437.7,765.77v-25.92c3.8-.4,7.58-.7,11.26.24,4.43,1.12,6.06,6,3.52,9.8-.46.69-1.14,1.24-1.92,2.07.56.53,1.1,1.09,1.68,1.59,2.3,2,2.81,4.55,2.01,7.32-.89,3.08-3.29,4.62-6.31,4.85-3.21.24-6.46.05-10.24.05Zm1.88-1.3c3.37-.26,6.34-.18,9.17-.78,2.73-.58,3.87-2.65,3.75-5.39-.11-2.61-1.6-4.61-4.35-4.93-2.74-.32-5.54-.07-8.56-.07v11.18Zm-.02-12.81c3.05-.18,5.62-.07,8.07-.54,2.84-.54,4.06-2.49,3.88-5.22-.16-2.47-1.52-4.14-4.28-4.46-2.46-.29-4.98-.06-7.68-.06v10.29Z"/><path class="cls-1" d="m741.72,687.35c-1.11-.8-1.84-1.34-1.86-1.35-3.45.63-6.28,1.52-9.13,1.56-3.24.05-5.79-2.14-6.25-5.33-.91-6.27-.38-12.58-.35-19.94,1.29,1.27,2.17,1.73,2.21,2.24.18,2.39.13,4.8.15,7.2.02,2.4-.06,4.81.04,7.21.19,4.53,2.06,6.51,6.02,6.53,4.64.03,7.19-2.29,7.3-6.84.09-3.81,0-7.63.06-11.44.02-1.31.28-2.62.51-4.55,1.04.78,1.68,1,1.79,1.38.62,2.13.3,20.08-.47,23.35Z"/><path class="cls-1" d="m941.87,687.47c-1.4-.81-2.02-.99-2.02-1.19-.15-7.18-.27-14.36-.32-21.55,0-.56.5-1.13,1.01-2.22.88,1.33,1.44,2.17,2.05,3.08.37-.19.73-.36,1.07-.56,1.2-.72,2.31-1.69,3.59-2.15,5.14-1.85,10.01.76,10.34,5.93.37,5.76.06,11.56.01,17.34,0,.2-.32.39-.92,1.07-.47-.89-1.13-1.57-1.15-2.27-.11-3.67-.07-7.34-.08-11.02,0-.85,0-1.7-.03-2.54-.21-4.6-1.74-6.53-5.32-6.77-3.81-.25-7.27,2.3-8.01,6.11-.29,1.5-.2,3.09-.21,4.64-.03,3.77,0,7.53,0,12.1Z"/><path class="cls-1" d="m619.43,663.1v24.05c-1.18-.63-2.04-1.09-2.24-1.2-3.31.63-6.14,1.54-9,1.62-3.1.09-5.55-1.77-6.18-4.86-1.29-6.4-.66-12.86-.53-19.29.36-.12.72-.24,1.08-.36.45.63,1.22,1.24,1.28,1.91.18,2.11.09,4.24.1,6.37,0,2.27-.03,4.53.01,6.8.1,5.33,1.77,7.26,6.05,7.36,4.26.1,7.67-2.91,7.31-7.4-.33-4.08-.07-8.21-.05-12.31,0-1.08-.15-2.31,2.17-2.68Z"/><path class="cls-1" d="m405.4,686.95c-2.63-.42-2.24-1.77-2.26-2.8-.06-3.67-.03-7.35-.03-11.02,0-.57,0-1.13-.01-1.7-.17-4.81-1.78-6.76-5.65-6.83-4.03-.07-7.42,2.9-7.59,6.97-.17,4.09-.01,8.2-.08,12.3-.02,1.13.46,2.64-2.02,3.07-.92-7.95-.24-15.77-.4-23.57l1.11-.35c.68.82,1.36,1.64,2.16,2.6,2.36-2.13,5.02-3.56,8.38-3.2,3.19.35,5.62,1.94,6.06,4.99.94,6.4.44,12.84.33,19.54Z"/><path class="cls-1" d="m327.93,662.37c1.01,1.46,1.59,2.29,2.2,3.18.33-.16.72-.3,1.07-.52,1.08-.66,2.06-1.52,3.21-1.99,5.21-2.13,10.12.31,10.67,5.81.56,5.59.28,11.27.3,16.9,0,.4-.59.81-.89,1.18-1.89-.61-1.5-2.07-1.53-3.23-.08-3.53-.04-7.06-.04-10.59,0-.56,0-1.13-.02-1.69-.22-4.84-1.83-6.76-5.68-6.81-4.01-.05-7.45,2.93-7.63,6.95-.18,4.09-.01,8.19-.09,12.28-.02,1.12.5,2.64-1.35,3.01-1.29-2.53-1.59-18.54-.23-24.49Z"/><path class="cls-1" d="m266.94,686.77c-.11-1.33-.29-2.66-.3-4-.04-3.68.05-7.36-.04-11.04-.12-4.94-1.7-6.94-5.42-7.12-4.14-.2-7.79,2.87-8.01,7.09-.2,3.95,0,7.92-.09,11.89-.02,1.14.54,2.6-1.06,3.29-1.49-2.05-1.98-16.27-.84-23.41,2.49-1.24,1.4,1.78,2.79,2.22,2.27-1.98,4.84-3.6,8.23-3.27,3.44.34,5.44,1.82,6.36,5.21.33,1.21.51,2.5.53,3.76.06,4.25.06,8.49,0,12.74-.02.95-.42,1.9-.64,2.85-.5-.07-.99-.13-1.49-.2Z"/><path class="cls-1" d="m492.24,746.31c2.29,2.13,2.15,4.95,2.98,7.31.87,2.45,1.43,5.01,2.13,7.52.33.02.67.04,1,.07.8-2.48,1.59-4.96,2.42-7.43.82-2.45,1.7-4.89,2.87-8.27,3.54,5.5,3.56,11.28,6.55,16.15,1.75-5.25,3.38-10.11,5.02-14.96.01-.04.26,0,.4,0,.51,3.06-3.41,16.5-5.76,19.25-2.79-4.65-3.16-10.15-6.09-15.61-1.95,5.67-3.64,10.59-5.4,15.71-2.46-2.4-6.45-15.54-6.12-19.73Z"/><path class="cls-1" d="m369.97,670.93c-.56-.61-1.25-1.14-1.64-1.85-2.13-3.84-4.3-5.03-8.17-4.39-3.04.51-5.42,2.75-5.86,6.38-.35,2.89-.31,5.93.18,8.79.51,2.94,2.48,5.06,5.67,5.55,3.34.51,6.18-.25,7.96-3.43.51-.92.72-2.32,2.62-1.43.07,2.24-1.19,3.84-2.86,5.15-4.97,3.9-12.44,2.21-15.1-3.54-2.18-4.72-2.14-9.62.05-14.35,1.94-4.19,6.24-6.14,10.97-5.28,4.02.73,6.3,3.29,6.19,8.4Z"/><path class="cls-1" d="m688.85,233.26c-1.58,2.63-3.38,2.43-4.95,2.3-7.03-.57-14.06-1.2-21.08-1.96-9.83-1.06-19.64-2.3-29.47-3.36-2.2-.24-4.44-.03-6.79-.03-.13-1.83,1.03-2.05,2.12-2.03,3.81.07,7.64.09,11.43.45,5.91.56,11.8,1.26,17.67,2.12,10.05,1.47,20.06,3.2,31.06,2.51Z"/><path class="cls-1" d="m756.64,756.13h-12.78c-.94,7.33,3.2,9.5,12.04,6.85-2.54,3.96-8.66,4.31-12.12.69-3.68-3.85-3.46-11.85.43-15.48,2.44-2.28,6.19-2.8,9.04-1.26,2.83,1.54,4.02,4.54,3.39,9.21Zm-12.84-2.28c3.77.85,7.95.79,11.06-.15-.45-4.13-2.23-6.04-5.53-5.94-3.23.09-5.09,2.14-5.52,6.09Z"/><path class="cls-1" d="m775.71,766.3c-1.25-.94-1.87-1.41-2.35-1.77-2.23.55-4.35,1.39-6.51,1.54-3.4.23-5.71-1.76-6.05-4.64-.34-2.87,1.4-5.44,4.6-6.2,2.04-.48,4.21-.44,6.31-.67.54-.06,1.06-.27,1.67-.43.59-2.5.31-4.6-2.1-5.87-2.6-1.37-5.29-.44-9.27,3.09-.97-1.47-.01-2.43.89-3.23,2.71-2.38,5.88-2.68,9.13-1.45,2.93,1.11,3.7,3.62,3.68,6.53-.03,4.09,0,8.17,0,13.1Zm-2.48-10.52c-2.83.42-5.45.61-7.94,1.27-1.74.46-2.68,1.98-2.5,3.91.17,1.83,1.6,3.15,3.66,3.45,4.73.67,7.55-2.47,6.78-8.63Z"/><path class="cls-1" d="m645.11,765.95c-.83-.53-1.56-1-2.3-1.48-1.95.52-4.04,1.41-6.2,1.59-3.43.29-5.75-1.6-6.19-4.47-.47-3.05,1.37-5.74,4.78-6.44,2.47-.51,5.02-.56,7.49-.82.75-3.24.36-4.99-1.57-5.94-4-1.95-6.9.04-9.94,4,.11-1.73-.06-2.42.21-2.84,2.3-3.7,8.14-4.76,11.58-2.16,1.47,1.1,2.12,2.59,2.12,4.4,0,2.4.02,4.8.03,7.21,0,2.2,0,4.39,0,6.95Zm-2.15-9.45c-2.91-.9-5.78-.57-8.52.73-1.52.72-2.37,2.04-2.13,3.78.26,1.9,1.52,2.95,3.34,3.34,4.79,1.03,8.08-2.43,7.31-7.84Z"/><path class="cls-1" d="m451.73,665.3c-1.83-.43-3.09-.72-4.36-1.02-.01-.25-.02-.49-.04-.74,1.25-.37,2.51-.73,4-1.17.29-1.87.6-3.84.96-6.18,3.37,1.51,1.13,4.44,2.67,6.23,1.2.29,2.64.64,4.34,1.06-1.16,2.08-3.1.74-4.78,2.09-.05,2.09-.14,4.72-.18,7.35-.03,2.69-.06,5.37.01,8.06.09,3.6.35,3.83,4.05,4.54.37.07.7.31,1.19.54-.4,2.18-2.06,1.58-3.28,1.58-1.88,0-3.36-.98-3.9-2.73-.49-1.59-.63-3.33-.66-5.01-.08-4.79-.03-9.59-.03-14.61Z"/><path class="cls-1" d="m636.99,685.55c-3.08,3.22-6.94,2.25-7.88-1.22-.4-1.47-.36-3.08-.38-4.62-.04-4.78-.02-9.56-.02-14.44-1.71-.34-3.01-.6-4.32-.86-.05-.23-.1-.47-.15-.7,1.31-.48,2.61-.95,4.16-1.52.22-1.78.45-3.67.7-5.75,3.81.96.84,4.19,2.35,5.87,1.5.41,3,.81,4.5,1.22,0,.25,0,.51,0,.76-1.4.29-2.8.57-4.64.95,0,5.8-.15,11.7.06,17.59.1,2.88,2.79,2.67,5.6,2.74Z"/><path class="cls-1" d="m470.43,756.15c.43-7.24,5.39-11.62,11.5-9.67,1.63.52,3.27,1.76,4.34,3.11,2.61,3.3,2.44,9.84-.01,13.24-3.43,4.77-11.1,4.46-13.97-.72-.99-1.78-1.26-3.97-1.85-5.97Zm2.06-.46c.32,1.66.41,3.11.9,4.4.97,2.55,2.74,4.25,5.66,4.41,2.9.15,5.11-1.18,6.32-4.04,1.34-3.17,1.25-6.37-.37-9.42-1.15-2.16-3.02-3.3-5.53-3.29-2.5,0-4.43,1.08-5.48,3.32-.71,1.5-1.04,3.18-1.49,4.62Z"/><path class="cls-1" d="m813.55,772.58c.72-.26,1.49-.45,2.17-.81,2.65-1.38,4.03-4.96,2.95-7.94-1.59-4.38-3.32-8.7-4.94-13.07-.47-1.25-.79-2.56-.71-4.04,2.68,1.7,2.86,4.75,3.96,7.24,1.12,2.54,2.03,5.17,3.31,8.49,2.87-5.64,3.77-11.2,7.12-15.92.11.44.44.96.31,1.32-2.73,7.56-5.4,15.15-8.33,22.64-1.13,2.87-2.22,3.13-5.83,2.08Z"/><path class="cls-1" d="m521.28,760.73c.51.59.99,1.19,1.53,1.75,1.89,1.99,5.43,2.8,7.73,1.46.98-.57,2.08-1.79,2.16-2.79.08-.99-.82-2.38-1.7-3.05-1.07-.81-2.57-1.06-3.89-1.53-1.32-.48-2.75-.75-3.95-1.44-2.56-1.45-3.05-4.67-1.21-6.89,2.84-3.44,9.97-2.84,12.16,1.06.29.52.18,1.25.36,2.79-1.18-1.15-1.74-1.65-2.24-2.19-1.86-2.01-4.56-2.91-6.84-1.78-1.1.55-2.28,1.85-2.49,2.98-.15.83,1,2.35,1.94,2.85,1.72.9,3.73,1.22,5.59,1.88,3.26,1.17,4.54,2.83,4.31,5.46-.22,2.67-2.19,4.5-5.6,4.68-1.91.1-3.93-.2-5.76-.77-1.76-.55-2.89-1.99-3.04-3.84.31-.21.63-.42.94-.64Z"/><path class="cls-1" d="m1031.68,685.87c-2.13,2.78-6.14,2.15-7.25-1-.55-1.56-.61-3.33-.64-5.01-.08-4.8-.03-9.59-.03-14.55-1.61-.34-2.93-.62-4.44-.93.68-2.14,2.79-1.04,4.11-2.24.25-1.65.55-3.61.94-6.18,2.73,2.04,1.19,4.58,2.41,6.45,1.35.33,2.86.7,4.37,1.08-.01.28-.03.55-.04.83-1.41.27-2.82.53-4.82.91-.1,5.77-.29,11.64.18,17.52.13,1.6,1.07,2.55,2.74,2.7.78.07,1.54.26,2.45.43Z"/><path class="cls-1" d="m651.09,746.51c3.19,1.28,3.52,5.17,6.26,7.16,2.79-1.7,3.09-5.85,6.95-7.46-1.03,4.08-4.21,6.33-5.56,9.98,1.96,2.9,4.04,5.99,6.12,9.07-4.18-.68-4.47-4.96-7.45-6.99-2.96,1.76-3.27,6.27-7.46,7.03,2.06-3.08,4.12-6.16,6.26-9.35-2.03-3.04-3.96-5.93-5.89-8.82.26-.2.52-.4.78-.61Z"/><path class="cls-1" d="m822.37,687.58c-1.03-.97-1.6-1.25-1.72-1.66-.59-2.13-.12-20.5.63-23.08.88.79,1.59,1.44,2.33,2.11,1.41-.76,2.79-1.78,4.33-2.26,1.25-.38,3.07-1.05,3.78,1.52-.79.22-1.4.45-2.02.55-4.6.78-6.66,3-6.8,7.66-.11,3.8-.01,7.62-.06,11.42-.01.95-.24,1.9-.48,3.74Z"/><path class="cls-1" d="m783.11,746.73c.15,1.01.42,2.01.44,3.02.06,3.1-.07,6.21.06,9.31.16,3.82,1.75,5.44,5.02,5.41,3.51-.03,5.59-1.86,5.79-5.36.16-2.81.01-5.64.07-8.46.03-1.3.22-2.6.8-3.89,1.6,2.98.88,6.15,1.01,9.22.13,3.09.03,6.19.03,9.83-1.98-1.15-3.52-.75-5.34-.12-5.45,1.89-8.95-.6-9.2-6.27-.16-3.52-.06-7.05,0-10.58.01-.71.35-1.42.54-2.12.26,0,.53.01.79.02Z"/><path class="cls-1" d="m923.9,686.73c-.04-7.78-.04-15.56,0-23.34.28-.14.56-.28.84-.42.7.61,1.39,1.21,2.27,1.98,1.1-.63,2.43-1.74,3.97-2.17,1.27-.36,3.39-1.43,3.83,1.37-7.89,2.12-8.58,3.07-8.59,11.54,0,2.97.05,5.94-.05,8.91-.03.81-.51,1.6-.78,2.4-.5-.09-1-.17-1.5-.26Z"/><path class="cls-1" d="m809.44,765.17c-3.97,1.29-5.54.5-5.9-3.08-.3-2.93-.13-5.91-.16-8.87-.01-1.54,0-3.08,0-4.71-1.18-.39-2.14-.71-3.91-1.3,1.73-.58,2.59-.86,3.51-1.17.31-1.52.62-3.05,1-4.91,2.11,1.43,1.07,3.25,1.9,4.88.85.24,1.99.56,3.99,1.13-1.88.58-2.97.92-4.38,1.36,0,4.28.04,8.63-.02,12.98-.04,2.7,2.15,2.84,3.96,3.69Z"/><path class="cls-1" d="m377.47,686.63v-23.12c1.97-.6,2.1.6,2.11,1.78.04,3.39.03,6.79.03,10.18,0,3.11.05,6.22-.07,9.33-.03.74-.63,1.46-.96,2.2-.37-.12-.75-.24-1.12-.36Z"/><path class="cls-1" d="m1012.72,663.08c.73.26,1.42.38,1.43.52.17,7.29.31,14.58.37,21.87,0,.51-.63,1.02-1.05,1.65-1.48-2.56-1.89-17.65-.74-24.03Z"/><path class="cls-1" d="m897.45,757.48h-60.86c0-.14,0-.27,0-.41h60.77c.03.14.06.27.09.41Z"/><path class="cls-1" d="m415.54,757.45h-60.48c0-.15,0-.31,0-.46h60.39c.03.15.06.31.08.46Z"/><path class="cls-1" d="m461.02,766.44c-.72-1.09-1.1-1.39-1.1-1.7-.03-5.9-.03-11.79-.03-18.2,2.03,1.35,3.73.95,5.52-.1.92-.54,2.4-1.04,3.19,1.01-.65.2-1.13.37-1.62.48-3.87.88-5.19,2.37-5.33,6.35-.11,3.09-.02,6.19-.08,9.28-.01.67-.26,1.35-.57,2.87Z"/><path class="cls-1" d="m549.83,756.97h33.15c0,.14,0,.27,0,.41h-33.15c0-.14,0-.27,0-.41Z"/><path class="cls-1" d="m702.67,757.5h-25.13c0-.15,0-.31,0-.46h25.15c0,.15-.01.31-.02.46Z"/><path class="cls-1" d="m380.43,655.71c-.98.62-1.65,1.37-2.16,1.27-.57-.11-1-.98-1.48-1.52.56-.48,1.09-1.3,1.68-1.34.51-.03,1.07.82,1.96,1.58Z"/><path class="cls-1" d="m1015.44,655.71c-.99.62-1.66,1.36-2.17,1.27-.57-.11-1-.98-1.49-1.52.56-.48,1.11-1.31,1.69-1.33.53-.02,1.1.83,1.98,1.59Z"/></svg>