<?xml version="1.0" encoding="UTF-8"?><svg id="Laag_1" xmlns="http://www.w3.org/2000/svg" viewBox="0 0 1280 155.38"><defs><style>.cls-1{fill:#fff;stroke-width:0px;}</style></defs><path class="cls-1" d="m105.35,39.72c-2.24.38-2.32-1.23-2.9-2.25-2.09-3.69-3.93-7.54-6.28-11.06-6-9.02-13.67-16.35-23.8-20.47C56.66-.47,42.03,2.12,29.06,12.83c-12.45,10.28-19.87,23.89-23.55,39.4-5.03,21.21-3.99,42.14,4.82,62.34,4,9.18,9.6,17.33,17.1,24.04,16.55,14.78,38.42,15.46,55.91,1.79,8.44-6.6,14.48-15.05,18.86-24.73.51-1.12.87-2.43.87-3.65.06-10.76.03-21.51,0-32.27,0-.54-.17-1.07-.31-1.9-1.62-.07-3.14-.2-4.65-.2-15.15-.01-30.3,0-45.46-.03-1.56,0-3.13-.34-4.69-.53l-.06-1.21c.96-.22,1.92-.61,2.88-.62,5.1-.06,10.2-.03,15.29-.03,11.47,0,22.94,0,34.41,0,1.51,0,3.03.12,4.77.2v77.03c-2.51-.05-2.12-1.73-2.13-3.02-.04-6.09-.02-12.17-.02-18.26,0-3.06,0-6.12-.78-9.42-.66.98-1.35,1.94-1.97,2.94-4.01,6.58-8.85,12.44-14.92,17.25-19.87,15.74-44.88,14.15-62.44-4.13-10.76-11.2-17.61-24.54-20.7-39.74-3.86-18.98-3.12-37.72,3.67-55.99,4.61-12.41,11.71-23.24,22.02-31.71,15.45-12.69,35.71-13.81,52.56-3.04,11.36,7.26,19.06,17.55,24.38,29.75.34.78.26,1.74.38,2.62Z"/><path class="cls-1" d="m572.93,16.94c1.22-.09,2.05-.21,2.88-.21,17.7,0,35.39-.05,53.09.03,7.64.03,14.83,1.95,21.44,5.87,12.66,7.51,17.19,18.99,15.9,33.13-1.19,12.95-8.29,21.62-20.11,26.58-2.59,1.09-5.32,1.86-8.49,2.95,1.52.52,2.69.79,3.76,1.29,4.08,1.91,8.43,3.44,12.13,5.92,8.03,5.38,12.11,13.3,12.72,22.88.22,3.51.16,7.11-.39,10.57-1.64,10.38-7.61,17.73-16.77,22.64-6.76,3.62-14.06,5.21-21.65,5.25-17.27.1-34.54.04-51.81.03-.82,0-1.63-.17-2.69-.28V16.94Zm2.2,134.82h5.11c14.59,0,29.17.05,43.76-.03,3.67-.02,7.36-.25,11-.75,17.34-2.39,28.31-13.99,29.11-30.61.67-13.96-6.11-24.76-19-30.14-6.08-2.54-12.49-3.67-19.05-3.7-15.86-.07-31.72-.03-47.58-.01-1.08,0-2.17.18-3.34.29v64.96Zm.06-67.92c1.32.1,2.42.26,3.51.26,15.57.02,31.13.07,46.7-.04,3.66-.03,7.36-.41,10.96-1.06,17.14-3.12,26.89-13.7,27.75-29.89.77-14.41-6.14-25.12-19.63-30.46-6.66-2.64-13.62-3.76-20.74-3.78-14.72-.06-29.43-.02-44.15-.02-1.38,0-2.76,0-4.4,0v64.99Z"/><path class="cls-1" d="m428.7,155.3c-9.53-21.52-19.07-43.04-29.02-65.51-10.01,22.36-19.66,43.93-29.31,65.5-.34.03-.69.06-1.03.09-.75-1.4-1.59-2.76-2.23-4.2-9.17-20.68-18.31-41.37-27.46-62.06-9.78-22.11-19.57-44.21-29.32-66.33-.62-1.41-1.79-2.81-1.03-4.85,2.2.61,2.35,2.34,2.92,3.63,8.34,18.73,16.65,37.47,24.95,56.21,10.13,22.88,20.24,45.77,30.37,68.65.55,1.25,1.2,2.46,2.2,4.5,10.23-22.12,19.46-43.84,29.83-66.2,2.98,5,4.56,9.48,6.53,13.75,1.96,4.23,3.78,8.53,5.66,12.8,1.94,4.4,3.88,8.8,5.82,13.19,1.89,4.27,3.77,8.54,5.67,12.8,1.94,4.36,3.89,8.72,6.21,13.92,4.28-9.63,8.21-18.47,12.12-27.31,3.89-8.79,7.75-17.6,11.63-26.39,3.94-8.92,7.88-17.85,11.83-26.77,3.89-8.79,7.76-17.59,11.69-26.37,3.95-8.83,7.62-17.8,12.27-27.26.64,1.46,1.19,2.1,1.07,2.57-.32,1.22-.91,2.36-1.43,3.52-18.89,42.66-37.79,85.32-56.69,127.97-.61,1.38-1.31,2.73-1.97,4.1-.43.01-.87.03-1.3.04Z"/><path class="cls-1" d="m903.8,85.5c.95,1.83,1.64,3.21,2.37,4.55,10.45,19.28,20.91,38.55,31.34,57.84.74,1.37,2.18,2.65.92,5.31-1.18-1.78-2.17-3.05-2.93-4.45-10.64-19.5-21.25-39.01-31.87-58.52-.47-.87-1.02-1.71-1.39-2.62-.8-1.99-2.2-2.63-4.32-2.57-4.67.13-9.35.04-14.02.04-8.5,0-16.99,0-25.49,0-1.53,0-3.06,0-5.18,0,0,1.92,0,3.42,0,4.92,0,19.25,0,38.5-.02,57.75,0,1.58-.23,3.15-.35,4.73-.29.04-.59.08-.88.11-.36-.49-.95-.93-1.04-1.46-.18-1.11-.12-2.25-.12-3.39,0-42.46,0-84.92,0-127.38v-4.64c1.45-.15,2.66-.39,3.86-.39,16.85-.05,33.7-.14,50.56-.05,8.17.04,16.03,1.69,23.17,5.93,12.24,7.28,17.38,18.28,16.21,32.18-1.37,16.24-11.92,27.23-28.83,30.5-3.72.72-7.51,1.02-11.99,1.61Zm-50.43-2.79c1.12.11,1.8.23,2.48.23,16.55,0,33.11.08,49.66-.05,5.82-.05,11.56-1.01,16.99-3.27,10.64-4.43,17.98-11.8,19.61-23.59,2.17-15.72-3.53-28.8-20.05-34.98-5.88-2.2-11.97-3.38-18.25-3.4-15.71-.04-31.41-.02-47.12,0-1.07,0-2.15.22-3.32.35v64.71Z"/><path class="cls-1" d="m1064.31,125.51c-4.27,9.06-7.98,18.29-12.3,27.29-2.2-1.04-1.36-2.12-.94-3.09,2.94-6.73,5.9-13.46,8.87-20.18,16.1-36.45,32.21-72.9,48.33-109.35.73-1.64,1.52-3.25,2.34-5,2.28.88,2.49,2.72,3.13,4.16,11.18,25.19,22.32,50.39,33.47,75.59,7.77,17.58,15.55,35.15,23.3,52.74.64,1.44,1.03,2.99,1.58,4.62-2.46.33-2.55-1.25-3.02-2.3-3-6.71-5.95-13.44-8.92-20.16-.57-1.29-1.14-2.58-1.67-3.77-3.14-1.09-83.82-1.56-94.16-.55Zm1.19-2.82h91.48c-15.26-34.49-30.31-68.53-45.74-103.42-15.45,34.94-30.48,68.93-45.74,103.42Z"/><path class="cls-1" d="m1044.75,151.89c-.92.36-1.4.71-1.87.71-30.56.03-61.11.02-91.59.02-1.07-3.97-1.03-133.61-.02-137.09,30.81,0,61.63,0,92.44.04.22,0,.44.6,1.07,1.5-4.61,1.07-8.91.42-13.14.54-4.24.12-8.49.03-12.74.03h-65.3c-.97,3.14-1.2,59.86-.23,65.32,1.41,0,2.92,0,4.43,0,13.45,0,26.89,0,40.34.01,1.43,0,2.85.21,5.19.39-2.17,2.16-3.92,1.69-5.46,1.7-13.31.04-26.61.02-39.92.02-1.53,0-3.05,0-4.86,0v65.17h5.1c27.18,0,54.36-.01,81.53.04,1.55,0,3.41-.72,5.03,1.6Z"/><path class="cls-1" d="m320.88,86.63c-.16,16.57-3.99,32-13.37,45.81-2.06,3.03-4.37,5.94-6.87,8.62-17.79,19.07-44.88,19.05-62.67,0-11.43-12.24-17.58-26.92-19.36-43.41-1.47-13.64-.59-27.13,4.04-40.2,3.7-10.43,9.31-19.67,17.3-27.39,17.04-16.46,41.78-16.48,58.76.04,11.79,11.47,18.4,25.63,20.82,41.77.73,4.88.91,9.84,1.35,14.77Zm-2.5-1.72c-.11-1.71-.2-4.97-.54-8.21-1.72-16.68-7.66-31.55-19.48-43.71-17.04-17.52-41.95-17.24-58.7.56-5.88,6.25-10.52,13.35-13.56,21.37-7.94,20.96-7.99,42.04-.06,63,3.92,10.35,10.06,19.32,18.77,26.3,14.69,11.76,34.24,11.7,48.99.01,4.71-3.73,8.58-8.21,11.92-13.17,9.08-13.49,12.56-28.59,12.66-46.16Z"/><path class="cls-1" d="m1179.1,15.4c1.91,1.02,1.19,2.78,1.2,4.21.05,16.7.03,33.4.03,50.11,0,5.8-.11,11.61.03,17.41.42,17.66,5.51,33.69,17.02,47.37,5.97,7.09,13.11,12.6,22.3,14.71,14.05,3.23,26.39-.33,36.75-10.29,11.11-10.67,17.48-23.91,19.94-38.98.89-5.42,1.25-10.97,1.28-16.47.14-21.09.05-42.18.08-63.27,0-1.59.29-3.17.45-4.76.31-.02.62-.04.93-.06.28.67.67,1.32.82,2.02.14.68.05,1.41.05,2.12,0,22.22.07,44.44-.02,66.67-.08,17.33-4.83,33.22-15.41,47.15-6.12,8.06-13.51,14.62-23.41,17.51-15.42,4.51-29.17,1.07-40.82-9.94-11.28-10.65-17.98-23.92-20.68-39.1-1.06-5.96-1.58-12.08-1.63-18.13-.19-21.23-.09-42.46-.03-63.69,0-1.52-.84-3.44,1.13-4.56Z"/><path class="cls-1" d="m141.89,150.35h5.55c27.18,0,54.35-.01,81.53.04,1.48,0,3.43-.82,4.34,1.19-.11.34-.13.49-.2.6-.07.11-.2.25-.31.25-30.27.1-60.54.2-90.81.28-.67,0-1.34-.17-2.45-.32,0-45.25,0-90.34.03-135.42,0-.47.43-.93.93-1.92.63,1.04,1.23,1.61,1.32,2.25.17,1.25.07,2.54.07,3.81,0,41.17,0,82.33,0,123.5v5.74Z"/><path class="cls-1" d="m771.46,17.04c-1.25,1.88-2.02,3.14-2.89,4.32-14.97,20.26-29.93,40.54-44.98,60.74-1.86,2.5-2.76,4.98-2.74,8.14.12,19.53.07,39.07.05,58.6,0,1.6-.17,3.19-.26,4.79-.31.04-.63.08-.94.12-.32-.63-.83-1.23-.91-1.89-.15-1.26-.07-2.54-.07-3.82,0-19.39-.05-38.78.05-58.18.01-2.85-.78-5.1-2.47-7.37-15.11-20.33-30.14-40.74-45.18-61.13-.88-1.19-1.66-2.45-2.48-3.68.19-.23.39-.45.58-.68.66.21,1.51.24,1.95.68.9.89,1.58,1.99,2.34,3.01,14.47,19.58,28.94,39.15,43.42,58.73.83,1.12,1.72,2.21,2.93,3.77,1.16-1.51,2.18-2.78,3.15-4.09,14.54-19.7,29.06-39.42,43.64-59.09.9-1.21,1.37-3.22,4.82-2.98Z"/></svg>