<?xml version="1.0" encoding="UTF-8"?><svg id="Laag_1" xmlns="http://www.w3.org/2000/svg" viewBox="0 0 1279.63 592.19"><defs><style>.cls-1{stroke-width:0px;}</style></defs><path class="cls-1" d="m595.86,0c-.14,2.88-.05,5.78-.47,8.62-.55,3.75-1.49,7.44-2.28,11.26,22.58,7.98,33.75,25.71,39.52,46.89,5.92,21.72-.27,41.7-13.05,59.75-3.74,5.29-7.88,10.3-11.88,15.41-2.66,3.39-2.26,5.97,1.15,8.88,7.98,6.8,16.67,11.97,27.07,14.05,2.5.5,4.87,1.61,7.31,2.43-.05.46-.1.92-.15,1.38-1.65,0-3.36.28-4.95-.04-12.33-2.56-23.05-8.32-32.28-16.82-3.86-3.55-3.85-6.84-.08-11.92,4.17-5.61,8.92-10.81,12.77-16.62,11.69-17.64,17.24-36.94,11.16-57.72-4.19-14.31-12.5-26.67-24.08-36.48-.75-.64-1.65-1.12-2.5-1.64-8.43-5.09-11.5-4.12-12.55,5.47-.82,7.48-.33,15.22.58,22.72.75,6.2,3.33,12.16,4.39,18.35.79,4.59,3.4,7.01,7.41,7.5,7.05.85,14.19,1.02,21.29,1.45,1.29.08,2.58.01,5.07.01-5.56,4.2-10.91,3.01-15.9,2.67-5.25-.36-10.44-1.55-15.93-2.41-.79,6.25-1.15,12.36-2.4,18.28-3.35,15.91-7.58,31.64-7.3,48.12.14,8.17,2.34,15.61,5.67,22.98,9.31,20.55,18.48,41.16,27.38,61.88,2,4.66,2.52,9.94,4.07,14.83.52,1.63,1.89,3.85,3.28,4.19,13.44,3.34,26.98,5.54,40.89,2.72,10.54-2.14,19.22-7.23,25.96-15.53,1.43-1.76,2.26-4.02,3.36-6.05.82.91,1.64,1.82,2.47,2.73-7.59,12.29-18.74,20.37-33.24,21.44-13.58,1.01-27.34-.55-41.76-1,.33,4.25-.04,9.98,1.34,15.25,3.26,12.46,6.65,24.97,11.3,36.96,4.99,12.87,14.31,18.2,28.94,15.4,41.08-7.86,82.26-15.89,119.85-35.49,27.87-14.54,55-30.41,79.96-49.63,2.88-2.22,5.6-6.23,6.07-9.73,1.86-13.82,3.52-27.63,8.45-40.8,1.09-2.2,2.18-4.4,3.27-6.6,7.47-12.35,11.95-25.87,14.5-39.92,1.44-7.95,1.06-16.21,2.03-24.27,2.99-25.04,13.17-46.83,30.68-65.01,6.11-6.34,12.91-12.01,19.2-18.18,3.9-3.83,7.2-8.28,11.25-11.92,1.5-1.35,4.41-1.74,6.57-1.52,1.18.12,3.04,2.41,3.06,3.74.43,27,2.66,54.05-8.72,79.97-10.03,22.88-26.69,37.96-49.56,46.81-8.85,3.42-15.3,9.03-18.52,18.17-5.51,15.62-13.03,30.81-16.35,46.88-6.11,29.59-14.79,58.13-27.3,85.54-7.82,17.13-19.25,31.52-34.73,42.3-13.23,9.2-26.91,17.75-40.41,26.55-1.43.93-3.03,1.62-4.55,2.42-.31-.49-.62-.99-.94-1.48,3.35-2.44,6.62-5.01,10.08-7.3,12.05-7.95,24.52-15.31,36.17-23.8,14.8-10.78,25.93-25.06,32.92-41.89,6.98-16.81,12.52-34.22,18.61-51.39.64-1.81.77-3.8,1.37-6.95-3.15,2.09-5.36,3.44-7.45,4.97-24.62,17.98-50.5,34.01-77.86,47.35-28.63,13.95-59.31,22.07-90.44,28.43-10.38,2.12-20.72,4.74-31.22,5.84-12.7,1.34-21.88-5.03-26.84-16.53-5.63-13.07-11.11-26.29-12.57-40.7-.88-8.75-.33-18.01-3.07-26.15-5.85-17.4-13.26-34.28-20.35-51.24-3.51-8.41-7.97-16.43-11.56-24.82-6.18-14.45-4.05-29.37-1.63-44.17,1.8-10.96,4.09-21.84,6.12-32.76,1.3-7,1-13.38-6.84-16.69-.57-.24-1.02-.84-1.44-1.34-.17-.21-.12-.61-.31-1.92,2.7,1.06,4.95,1.94,8.3,3.24-.96-4.37-1.28-8.15-2.62-11.51-5.18-12.94-4.6-25.87-1.1-39.06,2.17-8.15,3.57-16.51,5.32-24.77.33,0,.67,0,1,0Zm373.11,25.01c-1.42,2.35-2.49,3.72-3.12,5.26-2.14,5.21-4.32,10.42-6.14,15.75-8.24,24.16-19.12,46.79-34.34,67.58-8.78,12-14.81,26.01-22.07,39.12.4.31.8.62,1.21.94,3.51-1.33,7.05-2.6,10.53-4.01,13.29-5.42,25.35-13.14,34.14-24.3,10.25-13.01,17.43-28.24,19.2-44.8,1.81-16.95,1.39-34.15,1.88-51.24.03-1.03-.6-2.08-1.29-4.29Zm-67.43,124.47c.17.15.34.3.52.44.87-1.52,1.76-3.03,2.6-4.56,6.3-11.48,11.4-23.84,19.13-34.27,15.03-20.28,25.26-42.72,33.85-66.14,1.8-4.91,3.46-9.87,5.18-14.81-8.81,6.87-16.86,14.18-24.7,21.71-16.33,15.7-27.91,34.32-32,56.73-2.46,13.46-3.11,27.25-4.57,40.89Z"/><path class="cls-1" d="m639.48,521.64c5.41,3.08,11.62,5.51,16.43,9.59,10.64,9.01,12.52,21.22,9.28,34.09-3.38,13.48-13.16,20.77-26.21,23.79-4.8,1.11-9.88,1.38-14.83,1.44-14.98.18-29.97.08-44.96.04-2.11,0-4.22-.29-6.62-.47v-6.41c0-38.78.37-77.56-.2-116.33-.2-13.37.87-26.09,6.26-38.39,3.52-8.04,8.74-14.68,16.26-19.02,12.63-7.29,26.06-12.05,40.98-12.49,24.59-.73,49.33-.63,73.7-3.47,34.49-4.02,66.79-15.4,96.12-34.69,15.04-9.89,29.67-20.38,38.81-35.97,8.35-14.24,14.49-29.77,21.59-44.74.52-1.1.9-2.27,1.35-3.41l1.46.29c-.5,3.07-.28,6.5-1.6,9.15-7.25,14.54-13.94,29.49-22.72,43.08-5.74,8.88-13.93,16.67-22.37,23.21-29.51,22.85-62.84,37.61-99.81,43.55-13.74,2.21-27.56,4.26-41.43,5.2-18.06,1.22-36.22.99-54.31,1.88-22.24,1.09-41.23,16.05-48.06,37.25-1.47,4.55-2.74,9.16-4.31,14.44,2.58.12,4.47.28,6.37.28,16.48.02,32.99-.44,49.45.14,15.36.54,27.64,7.01,34.01,21.86,7.18,16.74-.22,35.52-16.78,43.05-2.7,1.23-5.54,2.17-7.85,3.07Zm-64.27,2.69v64.05c13.78,0,27.24.11,40.69-.05,6.63-.08,13.32-.21,19.88-1.05,13.64-1.75,24.17-10.72,27.09-22.4,5.07-20.33-6.11-38.33-27.37-40.18-19.77-1.72-39.81-.37-60.29-.37Zm.25-4.27c19.78,0,39.21.6,58.59-.24,10.75-.46,20.28-5.24,25.84-15.38,11.04-20.16,1.1-43.13-22.41-46.53-19.88-2.88-40.39-1.42-60.62-1.86-.25,0-.52.35-1.4,1.01v63Z"/><path class="cls-1" d="m885.06,183.12c-1.09,2.2-2.18,4.4-3.27,6.6-12.33,18.68-24.67,37.35-36.98,56.04-2.37,3.61-4.54,7.35-7,10.89-.91,1.31-2.38,2.23-3.59,3.33-.35-.25-.69-.51-1.04-.76.31-.96.42-2.06.95-2.87,14.68-22.35,29.57-44.56,44.06-67.03,9.25-14.34,11.27-30.76,11.24-47.32,0-4.25-2.39-9.04-4.97-12.66-11.29-15.84-19.45-32.77-20.8-52.49-.21-3.11-.95-6.19-1.49-9.28-.04-.2-.51-.33-.29-.2-1.6,14.53-4.43,29.28-4.5,44.05-.07,13.66,2.11,27.46,4.62,40.96,2.36,12.71,1.37,25.21.08,37.71-.93,8.99-3.4,17.83-5.47,26.68-.52,2.21-2.14,4.17-3.25,6.24-.56-.15-1.13-.31-1.69-.46.08-1.34-.25-2.88.29-3.99,10.35-21.1,9.86-43.38,7.08-65.83-2-16.14-5.63-32.14-4.25-48.53.76-9.03,2.21-18.01,3-27.22-.83,2.09-1.56,4.22-2.5,6.25-5.01,10.84-10.07,21.65-15.11,32.48-3.88,8.34-4.97,17.17-4.39,26.24.1,1.58.62,3.39,1.56,4.63,9.45,12.4,10.19,26.26,7.09,40.8-1.64,7.71-.71,15.11,1.99,22.49,1.75,4.8,2.88,9.84,4.14,14.81.21.84-.28,1.86-.53,3.24-.98-.56-2.04-.8-2.18-1.3-2.1-7.46-5.19-14.86-5.79-22.46-.75-9.48.11-19.17,1.16-28.68.83-7.48.23-14.77-4.15-20.48-8.02-10.47-6.46-21.5-3.76-32.78,1.07-4.46,3.24-8.67,4.97-12.96,6.51-16.12,13.04-32.23,19.6-48.34.93-2.28,2.06-4.49,3.09-6.73.47.12.95.25,1.42.37.41,6.19.74,12.38,1.23,18.56,1.4,17.74,6.17,34.59,17.45,48.46,8.99,11.06,10.67,22.87,8.09,35.94-1.7,8.6-4.05,17.07-6.11,25.6Z"/><path class="cls-1" d="m103.98,476.65c-.86-1.48-1.63-3.04-2.61-4.44-4.29-6.09-7.95-12.79-13.08-18.07-20.06-20.61-47.7-19.53-66.21,2.51-14.82,17.65-20.22,38.66-19.33,61.25.65,16.52,5.37,32.13,14.76,45.88,8.13,11.91,18.79,20.72,33.74,22.59,16.5,2.05,29.34-5.04,40.06-16.86,1.78-1.96,3.25-4.21,4.83-6.35,5.07-6.89,7.86-14.3,7.18-23.16-.63-8.24-.14-16.57-.14-25.48h-55.36c3.44-2.74,40.09-3.71,57.45-2.06v75.34c-.51.03-1.02.06-1.53.09v-28.66c-.44-.06-.87-.11-1.31-.17-2.56,3.57-4.95,7.26-7.69,10.68-15.65,19.49-39.61,25.3-59.54,14.29-9.7-5.35-16.87-13.43-22.63-22.76-18.1-29.34-16.52-74.32,3.96-101.96,11.85-16,27.19-25.59,48.03-21.67,16.26,3.06,27.52,13.38,35.83,27.15,2.1,3.48,3.57,7.33,5.33,11.02-.58.28-1.15.55-1.73.83Z"/><path class="cls-1" d="m311.05,455.52c19.34,43.63,38.67,87.26,58.56,132.14,10.02-22.29,19.59-43.58,29.16-64.87.52-.13,1.04-.26,1.55-.39,9.57,21.45,19.14,42.9,29.11,65.22,19.77-44.66,39.17-88.49,58.57-132.32.7.31,1.41.63,2.11.94-20.01,45.26-40.03,90.51-60.04,135.77-.53-.04-1.06-.09-1.59-.13-9.47-21.3-18.94-42.61-28.87-64.95-9.95,22.15-19.51,43.4-29.06,64.66-.58.09-1.15.18-1.73.26-19.97-45.19-39.95-90.39-59.92-135.58.71-.25,1.43-.5,2.14-.75Z"/><path class="cls-1" d="m1170.01,589.3c-2.12-4.53-4.29-9.04-6.36-13.58-7.55-16.52-2.25-13.41-20.6-13.56-24.13-.2-48.26.07-72.39-.15-4.87-.04-7.56,1.4-9.34,6.07-2.73,7.2-6.19,14.13-9.34,21.17-.7-.31-1.4-.62-2.1-.94,19.96-45.22,39.92-90.44,60.59-137.28,21.65,46.33,42.16,91.58,61.54,137.33l-2.01.94Zm-59.08-132.92c-15.41,34.84-30.39,68.7-45.47,102.79h90.94c-15.13-34.2-30.06-67.96-45.47-102.79Z"/><path class="cls-1" d="m851.42,588.7v-135.91c.82-.16,1.93-.57,3.03-.57,19.14.07,38.33-.59,57.42.48,26.2,1.47,40.82,28.5,28.42,51.37-6,11.07-16.22,15.68-28.17,17.25-2.62.34-5.23.76-8.34,1.21,11.97,22.13,23.75,43.91,35.53,65.68-.51.32-1.02.65-1.53.97-1.09-1.62-2.31-3.16-3.24-4.87-10.01-18.37-20.11-36.7-29.85-55.21-2.95-5.6-6.55-7.63-13.04-7.18-10.77.74-21.63.21-32.46.21-1.81,0-3.62,0-6.06,0v66.55c-.57,0-1.13,0-1.7,0Zm2.21-133.3v63.93c19.54,0,38.55,1.16,57.36-.29,23.28-1.79,36.17-21.08,29.74-42.05-4.28-13.95-15.48-20.36-28.57-21.25-19.17-1.3-38.5-.33-58.53-.33Z"/><path class="cls-1" d="m218.18,522.15c-.17-19.24,5.19-36.72,17.98-51.38,19.55-22.42,48.65-21.73,67.58,1.33,14.23,17.35,18.2,37.67,16.7,59.31-1.17,16.8-7.02,31.96-18.21,44.87-18.13,20.91-46.31,21.26-64.97.86-12.22-13.35-17.77-29.31-19.04-47.03-.19-2.64-.03-5.3-.03-7.95Zm99.97,1.54c.45-17.36-4.97-35.29-14.46-47.69-18.11-23.68-46.54-25.44-65.34-4.04-23.26,26.47-24.23,72.71-2.12,100.17,19.26,23.92,48.7,23.3,67.17-1.33,10.5-14,14.48-29.96,14.74-47.11Z"/><path class="cls-1" d="m1179.51,452.65c.25,2.38.72,4.75.73,7.13.06,21.47.03,42.93.04,64.4,0,16.31,4.7,31.14,14.58,44.13,19,24.99,47.87,25.14,67.37.51,10.35-13.07,14.42-28.37,14.82-44.59.53-21.78.31-43.58.41-65.38,0-1.96,0-3.93,0-5.89.42-.06.84-.11,1.26-.17.24,1.26.7,2.53.7,3.79.03,24.29.61,48.61-.21,72.88-.65,19.12-8.33,35.84-22.57,48.96-15.96,14.7-38.41,14.91-54.91.9-13.77-11.69-21.82-26.97-22.81-44.53-1.5-26.87-.94-53.85-1.22-80.78,0-.4.35-.81.54-1.21.43-.04.86-.09,1.29-.13Z"/><path class="cls-1" d="m1043.29,454.11h-89.85c-.3,4.48-.75,8.25-.76,12.03-.08,15.98.15,31.96-.15,47.93-.09,4.56,1.47,5.68,5.67,5.6,12.65-.24,25.3-.17,37.95-.23,1.74,0,3.48,0,5.21,0,0,.65.01,1.31.02,1.96h-47.85c-.35,5.07-.82,9-.85,12.93-.09,15.31-.07,30.63-.02,45.94.02,6.71.08,6.72,7.01,6.72,25.65,0,51.3,0,76.94.02,2.25,0,4.5.26,6.73,1.57h-92.51v-136.07h92.51c-.02.53-.03,1.06-.05,1.59Z"/><path class="cls-1" d="m141.51,452.84v134.18h92.51c-4.2,2.97-73.66,4.02-93.93,2.24v-136.4c.47,0,.95-.01,1.42-.02Z"/><path class="cls-1" d="m670.37,453.45c16.32,21.99,32.63,43.97,49.25,66.37,16.73-22.37,33.01-44.13,49.3-65.9.42.26.83.52,1.25.78-.86,1.59-1.55,3.3-2.61,4.74-14.21,19.28-28.41,38.57-42.76,57.73-2.83,3.78-4.21,7.62-4.16,12.39.2,18.3.13,36.61.11,54.92,0,1.83-.29,3.65-.44,5.48l-1.35-.05c-.16-2.2-.47-4.4-.46-6.6.04-18.3.35-36.61.06-54.9-.06-3.53-1.68-7.54-3.78-10.46-13.91-19.29-28.15-38.34-42.28-57.47-1.35-1.83-2.65-3.7-3.97-5.55.62-.49,1.23-.98,1.85-1.47Z"/><path class="cls-1" d="m699.38,224.81c-5.78,1.96-11.59.64-16.73-1.71-6.58-3.01-12.84-6.92-18.76-11.13-5.95-4.22-11.31-5.1-17.94-1.36-2.76,1.56-7.17,1.77-10.28.81-8.4-2.58-8.28-2.95-14.07,3.37-.63.69-1.42,1.23-2.34,2.02.4-7.56,6.9-12.11,13.62-9.16,5.4,2.37,9.75,2.21,14.95-.68,5.92-3.29,11.87-1.4,17.24,2.51,7.64,5.58,15.15,11.52,24.94,12.94,3.17.46,6.39.61,9.58.9-.07.49-.14.99-.2,1.48Z"/><path class="cls-1" d="m688.31,234.51c-2,.37-4.05,1.23-6,1.04-13.73-1.32-27.44-2.86-41.16-4.3-4.87-.51-9.75-.95-14.85-2.49,1.5-.32,3.03-1.02,4.48-.89,10.92.99,21.81,2.16,32.72,3.23,8.17.81,16.35,1.57,24.53,2.35.09.35.19.71.28,1.06Z"/></svg>