<?xml version="1.0" encoding="UTF-8"?><svg id="Laag_1" xmlns="http://www.w3.org/2000/svg" viewBox="0 0 883.69 1280"><defs><style>.cls-1{stroke-width:0px;}</style></defs><path class="cls-1" d="m195.5,852.56c15.57,0,30.41-.36,45.23.12,11.32.37,22.77.9,33.86,2.99,15.8,2.98,26.95,12.19,31.27,28.39,9.12,34.24-5.35,48.3-37.35,59.69-2.57.92-5.38,1.18-9.11,1.97,15.05,26.95,29.61,53.02,44.17,79.09-.81.48-1.63.97-2.44,1.45-1.31-1.72-2.73-3.36-3.92-5.16-14.24-21.51-28.62-42.94-42.56-64.64-4.74-7.38-10.07-11.21-19.46-10.51-12.65.94-25.43.23-38.9.23,0,9.13.1,16.4-.02,23.66-.27,16.57-.59,33.14-1.01,49.71-.12,4.56-.73,9.05-7.57,9.3-.28-2.16-.7-3.94-.72-5.73-.23-35.28-.61-70.56-.51-105.83.05-18.7-1.49-37.87,2.08-55.97,4.91-24.97,12.65-48.75,38.14-63.43,35.05-20.18,72.6-27.15,111.95-30.14,36.71-2.79,73.02-9.41,106.5-25.27,21.66-10.26,42.54-22.67,62.37-36.16,19.3-13.14,32.49-32.19,41.47-53.89.23-.55.03-1.29-.74-2.49-12.39,19.77-25.13,39.22-44.69,52.6-19.05,13.03-38.36,25.66-57.55,38.47-.52-.49-1.05-.98-1.57-1.47.6-1.17.91-2.72,1.86-3.43,3.78-2.84,7.72-5.48,11.68-8.07,15.41-10.09,31.05-19.85,46.22-30.29,13.94-9.59,32.69-33.72,37.57-47.6-2.95-.16-5.62-.42-8.29-.42-31.26-.06-62.52-.14-93.79-.01-3.69.02-7.47.96-11.05,2.02-18.1,5.35-36,11.45-54.26,16.19-19.9,5.17-39.94,10.34-60.25,13.26-19.13,2.75-33.63-3.66-41.34-27.53-3.26-10.11-8.08-19.79-10.59-30.05-2.46-10.05-3.34-20.56-4.08-30.93-1.03-14.39-4.58-27.97-10.54-41.04-9.52-20.87-18.37-42.06-28.56-62.59-8.41-16.94-10.07-34.46-7.32-52.55,2.49-16.35,6.17-32.52,9.25-48.79.52-2.78.55-5.65.92-8.47.98-7.4-1.44-12.93-8.41-16.29-1.54-.74-2.71-2.26-4.05-3.42.3-.55.59-1.09.89-1.64,2.96,1.27,5.92,2.54,10.02,4.3-1.62-16.81-10.97-31.67-7.54-48.33,3.26-15.83,6.34-31.7,9.5-47.56,1.07.18,2.15.36,3.22.54-1.62,8.65-3.24,17.29-4.89,26.13,21.39,5.19,31.96,21.45,42.18,38.21,19.43,31.86,8.15,75.58-9.71,96.65-4.89,5.77-9.21,12.03-13.91,17.97-3.72,4.7-2.88,8.26,1.72,12.02,11.55,9.44,24.23,16.3,39.06,18.89,1.52.26,2.89,1.37,3.96,3-11.37-.02-21.64-3.8-31.31-8.99-5.16-2.76-9.65-6.81-14.32-10.44-6.07-4.7-6.87-9.58-2.32-16,4.52-6.37,9.2-12.65,14.19-18.65,19.25-23.16,28.59-66.78,6.47-97.3-5.92-8.17-12.69-15.74-19.28-23.4-1.48-1.72-3.8-2.82-5.87-3.94-9.41-5.1-12.22-3.82-14.06,6.39-2,11.09-2.09,22.04,1.52,32.98,2.22,6.72,3.9,13.69,5.01,20.67.81,5.05,3.29,8,7.95,8.52,9.12,1.01,18.29,1.51,27.45,2.08,2.22.14,4.47-.28,7.68-.51-5.85,6.07-19.77,6.08-41.01.87-.82,7.44-1.3,14.88-2.53,22.2-2.75,16.31-6.08,32.52-8.79,48.84-3.76,22.69,6.1,41.96,15.54,61.49,12.03,24.89,24.66,49.6,30.54,76.99.44,2.07,3.06,4.98,4.96,5.23,14.01,1.8,28.1,4.16,42.17,4.14,17.48-.03,31.71-8.41,42.8-21.95,1.41-1.73,2.94-3.36,4.76-5.42,2.09,9.24-20.87,27.51-39.68,30.45-17.84,2.78-35.37.53-53.95-4.29.42,6.02.98,11.25,1.12,16.5.53,19.21,8.68,36.36,15.47,53.63,6.1,15.49,19.4,21.63,38.49,17.52,33.49-7.22,66.62-16.12,99.87-24.43,2.66-.67,5.1-2.23,9.58-4.24-4.92-1.2-7.9-1.92-10.88-2.65,26.68,1.86,47.91-11.55,69.42-24.44,14.6-8.75,29.82-16.5,44.21-25.58,12.79-8.07,24.94-17.19,37.08-26.24,2.82-2.1,5.82-5.52,6.43-8.76,3-15.94,5.22-32.02,6.94-48.81-18.28,28-36.57,56-54.85,84l-2.03-1.05c.09-1.21-.24-2.7.34-3.6,8.02-12.54,16.09-25.04,24.3-37.46,10.83-16.38,22.25-32.39,32.59-49.07,10.94-17.65,13.93-37.74,13.59-58.03-.1-6.19-4.15-12.79-7.72-18.35-11.74-18.3-21.8-37.15-24.28-59.2-.26-2.31-.88-4.59-1.54-7.97-7.62,24.98-8.75,49.22-4.61,73.73,4.46,26.42,7.99,52.92,3.48,79.65-1.64,9.71-4.41,19.31-7.66,28.62-1.45,4.16-5.33,7.48-8.26,11.37-.46-.26-1.46-.51-1.52-.92-3.22-20.17-12.88-39.3-6.41-60.99,3.74-12.54-.64-25.15-8.09-36.4-2.44-3.68-3.86-8.66-4.02-13.11-.48-13.42,2.9-25.92,8.56-38.34,9.31-20.41,16.95-41.58,25.31-62.42.99-2.47,2.07-4.91,3.11-7.37.67.04,1.35.08,2.02.12.37,1.8,1.07,3.6,1.05,5.39-.43,33.29,8.22,63.45,29.35,89.83,5.27,6.58,6.13,15.28,4.95,23.79-1.57,11.39-3.23,22.77-5.11,36,8.57-18.91,15.71-36.61,15.82-55.8.27-44.76,17.97-80.93,51-110.48,9.63-8.62,18.13-18.5,27.07-27.89,3.37-3.54,10.32-2.35,11.89,2.27.53,1.55.9,3.25.86,4.87-.49,20.8.17,41.72-1.94,62.35-2.44,23.97-11.45,46.38-27.41,64.48-11.85,13.43-26.95,23.83-44.38,29.73-12.03,4.07-19.83,11.95-24.07,23.9-3.4,9.59-7.97,18.77-11.1,28.44-4.07,12.57-7.98,25.27-10.61,38.19-6.22,30.51-16.1,59.79-27.8,88.53-.71,1.74-1.4,3.49-2.13,5.32,3.98-.03,4.18.06,10.48-13.36,2.65-5.66,4.26-11.8,6.37-17.77,2.29,3.63,1.85,9.21-1.34,16.03-2.37,5.08-4.85,10.1-7.75,16.13h316.16v634.66c-5.57.32-7.64-3.41-8.81-7.8-.53-2-.16-4.24-.16-6.37,0-85.5.01-171.01,0-256.51,0-1.61-.14-3.22-.28-6.25-1.77,1.89-3.02,2.75-3.63,3.95-25.49,49.55-56.63,95.11-95.09,135.6-47.48,49.98-102.23,89.23-166.88,113.96-27.99,10.7-56.98,17.53-86.77,20.71-102.92,10.97-194.17-17.79-274.81-81.64-57.61-45.62-101.97-102.6-138.96-165.52C44.76,939.86,15,841.91,5.14,738.07,1.41,698.8-.47,659.14.1,619.7c1.57-109.84,22.18-215.89,69.17-315.9,33.01-70.27,76.22-133.62,131.62-188.19,51.21-50.44,110.58-87.56,181.07-104.51,81.04-19.48,160.34-13.73,236.76,20.51,72.87,32.65,131.94,82.87,180.92,145.36,34.1,43.5,60.7,91.4,82.1,142.28,1.73,4.1,3.73,8.2-.83,13.35-2.98-6.66-5.63-12.55-8.25-18.45-32.39-72.93-77.27-136.84-138.53-188.38-34.81-29.29-71.49-56.24-112.48-76.55-32.17-15.94-66.47-24.23-102.16-27.78-131.68-13.07-241.27,33.43-333.2,125.03-75.01,74.75-120.18,166.31-144.63,268.63-10.44,43.69-15.43,88.1-17,132.96-1.26,35.94-4,71.85-4.14,107.78-.18,46.45,5.15,92.55,12.6,138.42,6.16,37.87,12.4,75.66,23.38,112.53,22.45,75.4,58.31,143.69,107.72,204.88,26.09,32.32,55.68,61.2,87.19,88.13,21.21,18.12,46.51,29.22,72.19,38.96,131.69,49.99,254.99,30.92,369.62-48.09,76.03-52.4,129.36-124.02,167.93-207.27,5.26-11.35,3.06-22.78,3.08-34.22.11-96.87-.06-193.75.17-290.62.02-7.27-1.95-9.06-9.1-9.04-95.92.24-191.84.36-287.76-.12-10.52-.05-16.18,3.41-19.74,12.62-8.06,20.87-23.21,36.33-40.58,49.27-36.18,26.95-76.31,45.69-121.17,52.77-26.37,4.16-52.91,7.41-79.44,10.44-30.75,3.52-58.83,14.02-84.55,30.92-16.83,11.06-24.32,27.66-26.55,47.13Zm.69,8.33c0,27.1.04,51.66-.03,76.21-.01,4.93,3.32,4.21,6.36,4.18,13.44-.13,26.89-.28,40.33-.4,18.62-.17,36.11-3.13,50.33-16.93,12.12-11.76,13.54-39.15,1.92-51.39-.96-1.01-2.09-2.08-3.36-2.54-7.92-2.85-15.74-7.09-23.9-7.94-14.51-1.5-29.23-.98-43.87-1.17-9.4-.13-18.79-.02-27.78-.02Zm415.26-399.49c6.4-2.49,11.02-4.28,15.63-6.09,15.7-6.18,29.59-15.72,40.28-28.27,15.34-18.02,23.92-39.99,26.17-63.48,1.91-19.94,1.23-40.14,1.61-60.22.02-.98-.78-1.97-1.81-4.38-1.79,3.66-3.16,6.03-4.14,8.56-5.92,15.21-10.9,30.86-17.84,45.58-7.62,16.19-15.87,32.33-25.93,47.06-12.99,19.03-23.55,39.14-33.98,61.25Zm-163.82,184c32.31,0,63.01.09,93.72-.22,1.9-.02,4.73-2.9,5.51-5.04,7.37-20.18,14.42-40.48,21.46-60.78.61-1.77.57-3.77,1.11-7.72-38.54,29.42-78.51,52.46-121.81,73.75Zm237.88-338.86c-.44-.28-.88-.56-1.32-.84-8.42,7.79-16.68,15.76-25.29,23.32-18,15.8-31.16,34.86-38.98,57.46-5.52,15.94-11.17,56.25-9.86,69.21,4.24-8.63,7.55-16.75,12.02-24.17,8.04-13.34,16.53-26.44,25.3-39.32,14.26-20.96,22.68-44.59,31.91-67.87,2.32-5.84,4.16-11.86,6.22-17.8Zm-141.16,237.17c.6.3,1.2.59,1.8.89,2.78-7.87,6.88-15.55,8.07-23.66,3.42-23.17,4.58-46.35-.26-69.75-4.7-22.72-6.68-45.86-2.63-69.07.93-5.31,1.96-10.6,3.26-17.6-7.4,15.83-13.59,30.15-20.72,43.99-6.07,11.78-7.92,24.16-7.66,37.05.05,2.44.83,5.3,2.28,7.22,10.93,14.51,12.73,30.63,9.06,47.85-2.21,10.38-2.27,20.64,1.79,30.66,1.68,4.14,3.34,8.28,5.02,12.42Z"/><path class="cls-1" d="m435.75,1026.45c.62-2.09.98-4.31,1.91-6.25,12.16-25.59,26.03-50.51,36.2-76.86,11.22-29.07,27.44-55.4,40.83-83.25.83-1.73,3.08-4.39,4-4.15,1.87.51,3.98,2.4,4.8,4.25,12.28,27.9,24.22,55.96,36.54,83.84,8.88,20.09,18.2,39.98,27.34,59.95,2.76,6.02,5.74,11.93,8.3,18.03.64,1.53.03,3.59,0,5.4-1.57-.93-3.93-1.49-4.6-2.87-3.71-7.65-7.2-15.43-10.39-23.31-1.49-3.69-3.63-4.69-7.52-4.64-35.23.51-70.46.87-105.69,1.04-5.38.03-8.93,1.76-11.33,6.6-3.35,6.74-6.67,13.55-10.78,19.83-1.45,2.21-5.17,2.93-7.86,4.33-.58-.65-1.16-1.3-1.74-1.95Zm138.59-36.5c-18.32-42.42-36.35-84.18-54.39-125.94-.66,0-1.31,0-1.97.01-16.56,42.2-38.68,82.01-54.12,125.93h110.47Z"/><path class="cls-1" d="m735.08,913.87c-.83,19.39-1.43,38.8-2.55,58.17-1.6,27.64-28.25,48.33-50.82,53.75-4.81,1.15-9.82,1.63-14.77,1.95-22.99,1.53-46.86-17.69-54.37-39.56-9.59-27.92-9.57-56.17-8.56-84.88.49-13.94-.25-27.93-.14-41.89.02-2.07,1.71-4.12,2.63-6.19,1.29,2.03,3.71,4.06,3.72,6.09.1,30.05-.4,60.1-.16,90.15.14,16.9,4.81,32.76,14.62,46.74,3.77,5.36,7.43,11.19,12.41,15.25,21.82,17.77,65.22,8.06,78.55-20.27,6.3-13.39,10.04-27.61,10.47-42.48.8-27.67,1.37-55.36,2.02-83.03.05-2.13-.44-4.39.13-6.36.61-2.09,2.18-3.89,3.33-5.82,1.23,1.93,3.49,3.85,3.53,5.81.3,13.49.14,26.99.13,40.48,0,4.02,0,8.05,0,12.07-.06,0-.11,0-.17.01Z"/><path class="cls-1" d="m320.25,1024.32h110.96c.03.82.06,1.64.1,2.47-2.09.21-4.18.57-6.27.6-34.55.42-69.09.69-103.63,1.33-4.64.09-6.69-1.64-7.33-5.62-.52-3.25-.92-6.61-.68-9.86,3.76-50.36,4.12-100.74.67-151.12-.4-5.89.89-8.62,7.45-8.49,35.96.75,71.93,1.2,107.89,1.79,1.26.02,2.51.5,3.77.76.07.73.14,1.47.21,2.2-3.62.53-7.24,1.54-10.85,1.53-30.3-.1-60.59-.28-90.88-.71-5.91-.09-7.52,2.02-7.59,7.78-.26,21.53-.83,43.06-1.79,64.56-.29,6.36,2.43,7.7,7.8,7.68,15.14-.04,30.27,0,45.4.37,2.29.06,4.54,2.02,6.8,3.11-2.08,1.3-4.14,3.67-6.25,3.71-14.19.31-28.4.13-42.6.1-3.27,0-6.53,0-10.43,0-.91,25.62-1.8,50.78-2.76,77.81Z"/><path class="cls-1" d="m252.57,541.58c1.58-11.25,11.06-17.03,19.87-12.21,5.47,2.99,9.71,2.88,15.04-.47,6.96-4.38,14.8-4.22,21.33.98,13.24,10.54,27.13,19.02,44.87,18.48.54-.02,1.11.67,3.39,2.15-3.85.55-6.12,1.17-8.39,1.14-15-.22-27.14-7.46-38.48-16.28-8.9-6.92-13.61-7.07-23.93-1.94-3.33,1.65-8.4,1.85-11.95.62-10.87-3.76-10.71-4.14-18.36,4.9-.79.94-1.98,1.54-3.4,2.62Z"/><path class="cls-1" d="m341,563.48c-3,.35-6.05,1.26-8.98.96-14.09-1.45-28.14-3.34-42.22-4.86-9.29-1-18.61-1.65-28.39-3.67,2.07-.58,4.19-1.77,6.21-1.62,10.83.78,21.65,1.78,32.45,2.93,13.52,1.44,27.02,3.11,40.54,4.67.13.53.26,1.06.39,1.6Z"/></svg>